<svg width="166" height="48" viewBox="0 0 166 48" fill="none" xmlns="http://www.w3.org/2000/svg">
<path d="M23.4092 14.2334C23.4873 15.083 23.4287 16.5771 23.2334 18.7158C23.1162 19.3701 22.9404 20.3418 22.7061 21.6309C22.208 24.4531 21.3096 26.7041 20.0107 28.3838C19.5127 29.0283 18.8633 29.6729 18.0625 30.3174C17.1152 31.0889 16.3584 31.5088 15.792 31.5771C15.7139 31.6455 15.5869 31.7285 15.4111 31.8262C13.624 32.1777 12.7646 32.3535 12.833 32.3535H1.05566C0.958008 31.7676 0.992188 31.4062 1.1582 31.2695C1.65625 31.0156 2.00293 30.8887 2.19824 30.8887C2.2666 30.752 2.36914 30.5713 2.50586 30.3467C3.07227 29.5361 3.35547 28.6328 3.35547 27.6367C3.35547 27.6172 3.32129 27.417 3.25293 27.0361C3.29199 26.8604 3.32617 26.6162 3.35547 26.3037C3.29688 26.167 3.2334 25.957 3.16504 25.6738C3.15527 25.5762 3.17969 25.4004 3.23828 25.1465C3.30664 24.8535 3.3457 24.6436 3.35547 24.5166C3.38477 23.8818 3.39941 22.8809 3.39941 21.5137V18.7158C3.38965 16.792 3.39941 14.0186 3.42871 10.3955C3.42871 10.3369 3.39453 10.2197 3.32617 10.0439C3.26758 9.86816 3.23828 9.74609 3.23828 9.67773C3.23828 9.4043 3.26758 8.98926 3.32617 8.43262C3.39453 7.87598 3.42871 7.46094 3.42871 7.1875C3.42871 7.11914 3.38965 6.99219 3.31152 6.80664C3.2334 6.62109 3.18457 6.47461 3.16504 6.36719C3.18457 6.04492 3.16992 5.56152 3.12109 4.91699C2.91602 3.81348 2.60352 3.11035 2.18359 2.80762C1.86133 2.56348 1.29004 2.36328 0.469727 2.20703C0.450195 2.09961 0.44043 1.87988 0.44043 1.54785C0.958008 1.19629 1.47559 1.09863 1.99316 1.25488C1.99316 1.25488 2.03711 1.29883 2.125 1.38672C2.21289 1.47461 2.28613 1.51367 2.34473 1.50391C2.42285 1.44531 2.52539 1.3623 2.65234 1.25488C2.76953 1.27441 2.94043 1.26953 3.16504 1.24023C3.43848 1.20117 3.62402 1.18164 3.72168 1.18164C4.21973 1.18164 4.60059 1.43555 4.86426 1.94336C4.89355 1.94336 4.93262 1.93848 4.98145 1.92871C5.08887 1.6748 5.26953 1.34766 5.52344 0.947266C5.81641 1.01563 6.22168 1.10352 6.73926 1.21094C6.75879 1.21094 6.80762 1.15723 6.88574 1.0498C6.96387 0.942383 7.03711 0.874023 7.10547 0.844727C7.4668 0.678711 8.02344 0.595703 8.77539 0.595703H13.375C15.3672 1.19141 16.7734 1.73828 17.5938 2.23633C19.1465 3.17383 20.4209 4.60449 21.417 6.52832C21.6221 6.89941 21.9102 7.49023 22.2812 8.30078C22.8086 9.74609 23.1846 11.7236 23.4092 14.2334ZM22.6035 14.2041C21.1289 14.0674 20.0938 14.0186 19.498 14.0576C19.3613 13.9502 19.2979 13.8135 19.3076 13.6475C19.3369 13.501 19.3613 13.3496 19.3809 13.1934C19.1562 12.4805 18.8145 11.4404 18.3555 10.0732C17.7109 8.27637 17.0029 6.85059 16.2314 5.7959C15.46 4.73145 14.2051 3.98926 12.4668 3.56934C11.6855 3.38379 11.3291 3.29102 11.3975 3.29102H9.53711C9.48828 3.29102 9.16602 3.36914 8.57031 3.52539C7.93555 3.69141 7.51562 3.78906 7.31055 3.81836C7.14453 4.98047 7.08105 6.24023 7.12012 7.59766C7.13965 8.25195 7.14941 7.1875 7.14941 4.4043V14.2334C7.14941 20.9424 7.12988 23.9941 7.09082 23.3887C7.14941 24.3457 7.18359 24.7559 7.19336 24.6191C7.14453 25.293 7.13477 25.8496 7.16406 26.2891C7.17383 26.3965 7.21289 26.6211 7.28125 26.9629C7.33984 27.2559 7.36426 27.4756 7.35449 27.6221C7.33496 27.6318 7.13477 27.7441 6.75391 27.959C6.4707 28.1152 6.2998 28.3252 6.24121 28.5889C6.45605 28.8525 6.72949 29.0039 7.06152 29.043C7.30566 29.0527 7.54492 29.0674 7.7793 29.0869C10.2109 29.458 11.6172 29.6436 11.998 29.6436C13.1406 29.6436 14.1562 29.3994 15.0449 28.9111C15.8164 28.4912 16.4512 27.9346 16.9492 27.2412C18.0039 25.7568 18.707 23.916 19.0586 21.7188C19.2246 20.6543 19.3418 18.8916 19.4102 16.4307C19.4199 16.2158 19.3125 15.9277 19.0879 15.5664C19.0684 15.3418 19.1025 15.21 19.1904 15.1709C19.3857 15.083 19.7617 14.9902 20.3184 14.8926C20.8164 14.8242 21.5244 14.7217 22.4424 14.585C22.5498 14.4678 22.6035 14.3408 22.6035 14.2041ZM44.415 15.874C44.415 16.4307 44.4004 16.8555 44.3711 17.1484C44.2734 17.373 44.1709 17.7197 44.0635 18.1885C44.0439 18.6572 43.9414 19.1553 43.7559 19.6826C43.5996 19.8779 43.3701 20.1953 43.0674 20.6348C42.9893 20.9277 42.7744 21.3477 42.4229 21.8945C42.1396 22.1777 41.71 22.6172 41.1338 23.2129C41.0459 23.2422 40.9336 23.291 40.7969 23.3594C40.6699 23.4766 40.4453 23.6475 40.123 23.8721C38.5215 24.7217 36.998 25.2051 35.5527 25.3223H33.6191C33.6387 25.3223 33.5996 25.293 33.502 25.2344C32.4473 25.2051 31.6562 25.0586 31.1289 24.7949C30.9922 24.7656 30.8066 24.7168 30.5723 24.6484C30.1816 24.4922 29.5957 24.2139 28.8145 23.8135C27.877 23.2178 26.998 22.3779 26.1777 21.2939C25.7188 20.6885 25.3135 19.9072 24.9619 18.9502C24.6299 18.0615 24.4443 17.3145 24.4053 16.709C24.3369 15.6738 24.376 14.6582 24.5225 13.6621C24.5811 13.5352 24.6592 13.3545 24.7568 13.1201C24.8154 12.8271 24.918 12.4023 25.0645 11.8457C25.2793 11.5039 25.5625 11.0059 25.9141 10.3516C25.9629 10.2441 25.9873 10.1172 25.9873 9.9707C26.0361 9.92188 26.1338 9.93652 26.2803 10.0146C26.3291 9.87793 26.3291 9.68262 26.2803 9.42871C26.4072 9.38965 26.5879 9.30664 26.8223 9.17969C26.9004 8.97461 27.0859 8.72559 27.3789 8.43262C27.9648 8.12012 28.8486 7.66113 30.0303 7.05566C30.333 6.90918 30.7188 6.78223 31.1875 6.6748C32.3789 6.40137 33.1895 6.26465 33.6191 6.26465H34.7617C35.6504 6.26465 36.4121 6.34766 37.0469 6.51367C37.3887 6.61133 38.1406 6.88477 39.3027 7.33398C39.5469 7.49023 39.9326 7.73437 40.46 8.06641C41.2217 8.55469 41.915 9.22363 42.54 10.0732C43.0967 10.835 43.458 11.5381 43.624 12.1826C43.7021 12.29 43.7998 12.4512 43.917 12.666C44.1318 13.252 44.2539 14.1211 44.2832 15.2734C44.2832 15.3125 44.3027 15.4053 44.3418 15.5518C44.3906 15.6885 44.415 15.7959 44.415 15.874ZM41.1631 16.2549C41.0752 15.0244 40.8359 13.9014 40.4453 12.8857C39.9473 11.5771 39.3613 10.5469 38.6875 9.79492C37.7305 8.74023 36.6855 8.12012 35.5527 7.93457C34.4785 7.75879 33.7412 7.7002 33.3408 7.75879C32.5596 7.85645 31.8955 8.02734 31.3486 8.27148C31.2803 8.30078 30.8359 8.55957 30.0156 9.04785C29.9668 9.14551 29.8789 9.2627 29.752 9.39941C29.6738 9.41895 29.5859 9.44824 29.4883 9.4873C29.293 9.74121 29.0488 10.083 28.7559 10.5127C28.7168 10.6299 28.6533 10.7959 28.5654 11.0107C28.4189 11.2451 28.2627 11.5234 28.0967 11.8457C28.0088 12.207 27.8721 12.749 27.6865 13.4717C27.6963 13.7451 27.6914 14.1602 27.6719 14.7168C27.6719 14.7461 27.6523 14.8096 27.6133 14.9072C27.5742 15.0049 27.5596 15.0732 27.5693 15.1123C27.7061 15.7471 27.9014 16.626 28.1553 17.749C28.126 17.8271 28.1064 17.9199 28.0967 18.0273C28.165 18.1641 28.2627 18.3496 28.3896 18.584C28.3994 18.7109 28.4287 18.877 28.4775 19.082C28.8877 19.9023 29.1025 20.3223 29.1221 20.3418C29.415 20.8496 29.8154 21.333 30.3232 21.792C30.333 21.8018 30.3965 22.002 30.5137 22.3926C30.5527 22.4023 30.7188 22.4316 31.0117 22.4805C31.4902 22.9199 31.8564 23.2178 32.1104 23.374C32.833 23.8037 34.1416 23.9355 36.0361 23.7695C36.1924 23.7207 36.3975 23.6572 36.6514 23.5791C36.9736 23.5107 37.4375 23.3496 38.043 23.0957C38.1797 22.9688 38.3604 22.8174 38.585 22.6416C39.5615 22.0361 40.1426 21.2891 40.3281 20.4004C40.4258 20.2832 40.543 20.1172 40.6797 19.9023C40.6992 19.7168 40.7285 19.4971 40.7676 19.2432C40.8262 19.1846 40.8848 19.0918 40.9434 18.9648C40.9629 18.7402 41.0117 18.252 41.0898 17.5C41.1582 16.8945 41.1826 16.4795 41.1631 16.2549ZM65.8164 6.66016C65.8359 6.82617 65.6553 6.98242 65.2744 7.12891C64.7568 7.32422 64.4883 7.42676 64.4688 7.43652C64.0684 7.72949 63.7803 8.21777 63.6045 8.90137C63.3994 9.31152 63.165 9.95605 62.9014 10.835C62.8623 11.1279 62.7109 11.5576 62.4473 12.124C62.1836 12.6807 62.0518 13.0225 62.0518 13.1494C62.0518 13.2666 62.0371 13.4521 62.0078 13.7061C61.3047 15.8057 60.2842 18.9795 58.9463 23.2275C58.8193 23.6768 58.6973 24.126 58.5801 24.5752C58.3848 25.1025 58.126 25.3662 57.8037 25.3662C57.6768 25.3662 57.5449 25.332 57.4082 25.2637C57.4082 25.2246 57.4326 25.127 57.4814 24.9707C57.5303 24.8047 57.5498 24.6729 57.54 24.5752C57.4131 24.5068 57.2812 24.3066 57.1445 23.9746C57.1445 23.8574 57.1348 23.6914 57.1152 23.4766C56.9883 23.1836 56.8125 22.71 56.5879 22.0557C56.5684 21.8311 56.5488 21.6016 56.5293 21.3672C56.4805 21.0254 56.3584 20.752 56.1631 20.5469C56.1533 20.4785 56.1338 20.3857 56.1045 20.2686C56.1631 20.1221 56.1924 19.9805 56.1924 19.8438C56.1924 19.5898 56.0947 19.3262 55.8994 19.0527C55.7236 18.8379 55.5527 18.6279 55.3867 18.4229C55.4746 18.2959 55.5869 18.125 55.7236 17.9102C55.5967 17.7734 55.46 17.5781 55.3135 17.3242C55.3135 17.168 55.2988 16.9141 55.2695 16.5625C55.1621 16.3867 55.0107 16.1133 54.8154 15.7422C54.7764 15.6543 54.7715 15.5078 54.8008 15.3027C54.8496 15.0195 54.874 14.8291 54.874 14.7314C54.5811 14.5361 54.3613 14.6191 54.2148 14.9805C54.0781 15.4883 53.8633 16.2451 53.5703 17.251C53.2285 18.0225 52.8379 19.1699 52.3984 20.6934C52.2812 20.9668 52.1299 21.3916 51.9443 21.9678C51.7979 22.6514 51.6758 23.1738 51.5781 23.5352C51.3926 24.1699 51.1826 24.6875 50.9482 25.0879C50.7139 25.2051 50.46 25.2051 50.1865 25.0879C50.0303 24.7461 49.9033 24.3018 49.8057 23.7549C49.6885 23.1006 49.6006 22.6758 49.542 22.4805C49.415 22.0898 49.2344 21.7773 49 21.543C49.0977 20.957 49.0781 20.5127 48.9414 20.21C48.7949 20.0732 48.5898 19.8486 48.3262 19.5361C48.3164 19.4092 48.3066 19.248 48.2969 19.0527C48.2969 19.0039 48.2871 18.9648 48.2676 18.9355C48.1309 18.6523 47.9551 18.2324 47.7402 17.6758C47.7598 17.5488 47.75 17.373 47.7109 17.1484L47.916 16.9434C48.1406 17.1289 48.4727 17.3291 48.9121 17.5439C48.9414 17.3291 48.8584 17.1045 48.6631 16.8701C48.4287 16.5967 48.3018 16.3916 48.2822 16.2549C47.2373 15.7275 46.7148 15.1562 46.7148 14.541C46.7148 14.3945 46.7441 14.2529 46.8027 14.1162C46.666 13.9111 46.5 13.6084 46.3047 13.208C46.2363 12.8564 46.1045 12.3486 45.9092 11.6846C45.7822 11.5479 45.6309 11.3232 45.4551 11.0107C45.4746 10.8154 45.4844 10.5029 45.4844 10.0732C45.377 9.89746 45.2012 9.59473 44.957 9.16504C44.8301 8.90137 44.708 8.64258 44.5908 8.38867C44.4248 8.07617 44.2344 7.84668 44.0195 7.7002C43.8535 7.57324 43.4287 7.45117 42.7451 7.33398C42.7646 7.33398 42.7061 7.26562 42.5693 7.12891C42.6084 7.05078 42.6719 6.96289 42.7598 6.86523C43.1504 6.81641 43.834 6.85059 44.8105 6.96777C44.957 6.9873 45.1914 6.97266 45.5137 6.92383C45.875 6.85547 46.0654 6.82129 46.085 6.82129H48.6631C48.7217 6.82129 48.8096 6.78223 48.9268 6.7041C49.0537 6.62598 49.1465 6.58691 49.2051 6.58691C49.2441 6.66504 49.2637 6.7334 49.2637 6.79199C49.2637 6.95801 49.0537 7.14844 48.6338 7.36328C48.2139 7.56836 47.999 7.82715 47.9893 8.13965C47.9697 8.6084 48.1162 9.13574 48.4287 9.72168C48.4482 9.97559 48.4971 10.3711 48.5752 10.9082C48.6631 11.2402 49.0098 12.1338 49.6152 13.5889C49.625 13.7939 49.6445 14.0771 49.6738 14.4385C49.7227 14.5264 49.7861 14.6387 49.8643 14.7754C49.8545 15.0488 49.9473 15.376 50.1426 15.7568C50.3867 16.2354 50.5186 16.5283 50.5381 16.6357C50.6748 17.2705 50.9629 18.1885 51.4023 19.3896C51.6074 19.3896 51.7441 19.2871 51.8125 19.082C52.1836 17.9199 52.4814 16.8262 52.7061 15.8008C52.7842 15.7227 52.877 15.5811 52.9844 15.376C53.043 15.0244 53.1748 14.5166 53.3799 13.8525C53.6729 13.1885 53.8193 12.71 53.8193 12.417C53.8193 12.251 53.7949 12.0898 53.7461 11.9336C53.4238 11.0156 52.9502 9.64355 52.3252 7.81738C52.1885 7.68066 51.9102 7.50977 51.4902 7.30469C51.1191 7.12891 50.8994 6.97754 50.8311 6.85059C51.0459 6.82129 51.3779 6.75781 51.8271 6.66016C51.8271 6.83594 51.8516 6.94336 51.9004 6.98242C52.252 7.06055 52.7109 7.06055 53.2773 6.98242C53.7949 6.91406 54.3125 6.8457 54.8301 6.77734C54.9473 6.76758 55.3281 6.78223 55.9727 6.82129C56.4414 6.84082 56.8271 6.78711 57.1299 6.66016C57.1689 6.77734 57.1885 6.87012 57.1885 6.93848C57.1885 7.08496 57.042 7.19238 56.749 7.26074C56.3584 7.34863 56.0752 7.48047 55.8994 7.65625C55.792 7.76367 55.7383 7.94922 55.7383 8.21289C55.7383 8.38867 55.7871 8.65234 55.8848 9.00391C56.0117 9.46289 56.085 9.76074 56.1045 9.89746C56.0654 10.1318 56.0557 10.4688 56.0752 10.9082C56.251 11.0938 56.4561 11.3721 56.6904 11.7432C56.7393 12.0752 56.8174 12.5244 56.9248 13.0908C57.0518 13.5596 57.1836 14.0234 57.3203 14.4824C57.4863 15.0586 57.5498 15.4932 57.5107 15.7861C57.6572 15.9131 57.8086 16.084 57.9648 16.2988C57.9746 16.4355 58.0479 16.9043 58.1846 17.7051C58.292 18.3496 58.3457 18.833 58.3457 19.1553C58.4043 19.2236 58.4727 19.3018 58.5508 19.3896C58.668 19.3311 58.8096 19.2236 58.9756 19.0674C59.1611 18.667 59.4443 18.0225 59.8252 17.1338C59.9229 16.5088 60.0791 15.6396 60.2939 14.5264C60.3135 14.4482 60.4941 14.2236 60.8359 13.8525C60.8555 13.1006 61.0508 12.3389 61.4219 11.5674C61.4316 11.4014 61.4756 11.1475 61.5537 10.8057C61.6416 10.7275 61.7393 10.5908 61.8467 10.3955C61.9053 10.0342 62.042 9.47266 62.2568 8.71094C62.4521 8.23242 62.4033 7.85156 62.1104 7.56836C61.9932 7.4707 61.7783 7.38281 61.4658 7.30469C61.0947 7.20703 60.8359 7.12402 60.6895 7.05566C60.8555 6.80176 61.2656 6.70898 61.9199 6.77734C61.9297 6.77734 61.9834 6.79687 62.0811 6.83594C62.1787 6.875 62.2617 6.89453 62.3301 6.89453C62.3887 6.89453 62.5107 6.86523 62.6963 6.80664C62.8818 6.74805 63.0674 6.70898 63.2529 6.68945C63.3604 6.67969 63.5312 6.69922 63.7656 6.74805C64 6.78711 64.1709 6.80664 64.2783 6.80664C64.7471 6.80664 65.2598 6.75781 65.8164 6.66016ZM47.7256 16.1816L47.4326 16.3867L47.3594 16.2695L47.6523 16.0645L47.7256 16.1816ZM79.9668 18.4668L79.835 18.6279L79.7471 18.54L79.8203 18.2324C79.9863 18.3887 80.0352 18.4668 79.9668 18.4668ZM85.4014 7.27539C85.2158 7.30469 84.9473 7.35352 84.5957 7.42188C84.2246 7.5293 83.9316 7.76367 83.7168 8.125C83.4141 8.66211 83.2285 9.18945 83.1602 9.70703C83.0332 10.6055 82.9697 11.3379 82.9697 11.9043C82.9697 11.9434 82.9893 12.3682 83.0283 13.1787C83.0674 13.9795 83.0869 14.4043 83.0869 14.4531V16.7822C83.0869 16.8115 83.1016 16.9092 83.1309 17.0752C83.1699 17.2412 83.1846 17.3682 83.1748 17.4561C83.1162 18.6377 83.0869 19.3018 83.0869 19.4482C83.0869 19.5264 83.1064 19.6875 83.1455 19.9316C83.1846 20.166 83.2041 20.3027 83.2041 20.3418V24.8389C83.2041 24.8975 83.209 24.9316 83.2188 24.9414C83.2383 24.9414 83.248 24.9463 83.248 24.9561C82.5645 25.0732 82.2568 25.1318 82.3252 25.1318C81.915 25.1318 81.6611 25.0879 81.5635 25C80.8896 24.375 79.8936 23.2812 78.5752 21.7188C78.3408 21.4062 77.9893 20.957 77.5205 20.3711C77.1104 19.9707 76.5537 19.3848 75.8506 18.6133C75.6748 18.3203 75.3818 17.8857 74.9717 17.3096C74.0928 16.2451 72.8477 14.6777 71.2363 12.6074C71.0215 12.4414 70.7285 12.1777 70.3574 11.8164C70.3477 11.748 70.3184 11.6504 70.2695 11.5234C70.1523 11.3379 69.957 11.0596 69.6836 10.6885C69.4785 10.7861 69.376 10.9375 69.376 11.1426C69.376 11.1328 69.4443 11.6309 69.5811 12.6367C69.5908 12.6953 69.5811 12.7881 69.5518 12.915C69.5225 13.0322 69.5078 13.1104 69.5078 13.1494C69.5078 13.54 69.5225 14.1455 69.5518 14.9658C69.5908 15.7764 69.6104 16.1719 69.6104 16.1523V18.2031C69.6104 18.2617 69.6152 18.7598 69.625 19.6973C69.6445 20.6348 69.6543 21.1279 69.6543 21.1768C69.6543 23.2178 70.3818 24.292 71.8369 24.3994C71.8662 24.3994 71.9004 24.4434 71.9395 24.5312C71.9883 24.6094 72.0225 24.6582 72.042 24.6777C72.0518 24.8535 72.0273 25 71.9688 25.1172H66.8564C66.8174 25.1172 66.6367 25.1416 66.3145 25.1904C66.002 25.249 65.8213 25.2783 65.7725 25.2783H65.5381C65.4502 25.1904 65.4062 25.1367 65.4062 25.1172C65.4062 24.7754 65.5137 24.5459 65.7285 24.4287C65.9824 24.3506 66.3535 24.2041 66.8418 23.9893C67.3203 23.7256 67.6084 23.3057 67.7061 22.7295C67.96 21.3135 68.0137 20.4492 67.8672 20.1367C67.7988 20 67.7891 19.8828 67.8379 19.7852C67.8379 19.7852 67.877 19.7363 67.9551 19.6387C67.9551 19.6387 67.9258 19.5947 67.8672 19.5068C67.8574 19.3994 67.8623 19.2139 67.8818 18.9502C67.9014 18.6768 67.9111 18.4814 67.9111 18.3643C67.9111 18.2275 67.8818 17.9932 67.8232 17.6611C67.7744 17.3291 67.75 17.0947 67.75 16.958C67.75 17.1045 67.7695 16.8018 67.8086 16.0498C67.7988 16.0205 67.7549 15.9229 67.6768 15.7568L67.75 15.6836C67.7891 15.625 67.8135 15.5176 67.8232 15.3613C67.8428 15.332 67.8428 15.2979 67.8232 15.2588C67.6865 14.1553 67.6182 13.4131 67.6182 13.0322V11.0107C67.6182 11.0107 67.5986 10.7227 67.5596 10.1465C67.5303 9.57031 67.5156 9.15527 67.5156 8.90137C67.5156 8.87207 67.5303 8.80859 67.5596 8.71094C67.5986 8.61328 67.6133 8.53027 67.6035 8.46191C66.8613 7.68066 65.9287 7.3291 64.8057 7.40723L64.7324 7.33398V6.85059C64.8398 6.72363 65.1035 6.66016 65.5234 6.66016C65.5723 6.66016 65.9629 6.67969 66.6953 6.71875C67.4375 6.75781 67.833 6.77734 67.8818 6.77734C67.9209 6.77734 68.2822 6.75781 68.9658 6.71875C69.6592 6.67969 70.0303 6.66016 70.0791 6.66016C70.3135 6.66016 70.4502 6.66992 70.4893 6.68945C70.626 6.73828 70.9092 7.05566 71.3389 7.6416C72.1494 8.78418 73.3701 10.4834 75.001 12.7393C75.333 13.1592 75.8311 13.7842 76.4951 14.6143C76.3779 15.4736 76.5 15.9033 76.8613 15.9033C76.9004 15.9033 76.9785 15.874 77.0957 15.8154C77.2129 15.7568 77.2959 15.7275 77.3447 15.7275C77.4717 15.7275 77.6426 15.9082 77.8574 16.2695C77.9648 16.4551 78.0674 16.6357 78.165 16.8115C78.8779 17.3877 79.3223 17.8271 79.498 18.1299C79.5371 18.2959 79.6055 18.54 79.7031 18.8623C79.7812 18.9697 79.8447 19.0234 79.8936 19.0234C79.9424 19.0234 79.9912 19.0039 80.04 18.9648C80.0889 18.9258 80.1182 18.9062 80.1279 18.9062C80.3916 19.1895 80.748 19.6045 81.1973 20.1514C81.3633 20.0732 81.4463 20 81.4463 19.9316C81.4463 19.8828 81.4268 19.7998 81.3877 19.6826C81.3486 19.5654 81.3291 19.4824 81.3291 19.4336V17.8662C81.3291 17.8174 81.3193 17.749 81.2998 17.6611C81.29 17.5635 81.2852 17.4414 81.2852 17.2949C81.3242 17.1094 81.3535 16.8457 81.373 16.5039C81.3242 16.2207 81.2607 15.8057 81.1826 15.2588C81.1631 15.1807 81.1729 15.0342 81.2119 14.8193C81.251 14.6045 81.2705 14.4824 81.2705 14.4531C81.2705 14.4141 81.2559 14.3359 81.2266 14.2188C81.1973 14.0918 81.1826 14.0039 81.1826 13.9551C81.1631 13.7793 81.1631 13.54 81.1826 13.2373C81.2021 12.8564 81.2119 12.6025 81.2119 12.4756C81.2119 12.4268 81.1875 12.3438 81.1387 12.2266C81.0996 12.1094 81.0752 12.0215 81.0654 11.9629C81.0654 11.9629 81.085 11.8311 81.124 11.5674C81.1338 11.4893 81.1143 11.3379 81.0654 11.1133C81.0264 10.8887 81.0068 10.7178 81.0068 10.6006C81.0068 10.5615 81.0264 10.4736 81.0654 10.3369C81.1045 10.2002 81.1191 10.1025 81.1094 10.0439C81.0508 9.64355 80.9482 9.05762 80.8018 8.28613C80.665 7.77832 80.1084 7.44141 79.1318 7.27539C79.1514 7.10938 79.1318 6.93359 79.0732 6.74805C79.1807 6.66016 79.5273 6.61621 80.1133 6.61621L82.7793 6.71875C82.7207 6.71875 83.1602 6.68945 84.0977 6.63086C84.6543 6.5918 85.0889 6.62598 85.4014 6.7334V7.27539ZM98.9951 10.4834C99.083 10.8936 99.0293 11.8018 98.834 13.208C98.7656 13.6963 98.4824 14.2822 97.9844 14.9658C97.4863 15.6396 96.9834 16.1426 96.4756 16.4746C96.0166 16.7871 95.3721 17.0117 94.542 17.1484C94.3369 17.2363 94.0342 17.334 93.6338 17.4414C92.8623 17.5098 91.8857 17.5439 90.7041 17.5439C90.6357 17.5439 90.5527 17.6025 90.4551 17.7197C90.4941 18.0908 90.5381 19.2725 90.5869 21.2646C90.6064 21.6553 90.6846 22.1631 90.8213 22.7881C90.8213 22.9639 90.8701 23.2227 90.9678 23.5645C91.1631 23.916 91.4902 24.165 91.9492 24.3115C92.3105 24.4189 92.6719 24.5264 93.0332 24.6338C93.043 24.7412 93.0381 24.8682 93.0186 25.0146C92.7354 25.1318 92.4473 25.1904 92.1543 25.1904H90.6455C90.626 25.1904 90.4941 25.166 90.25 25.1172C90.0156 25.0684 89.8447 25.0439 89.7373 25.0439C89.4443 25.0439 88.9805 25.0684 88.3457 25.1172C87.7207 25.166 87.4131 25.1904 87.4229 25.1904H85.9727C85.8262 25.1904 85.6504 25.1416 85.4453 25.0439C85.4453 25.0244 85.4307 24.9707 85.4014 24.8828C85.3818 24.7949 85.3721 24.7314 85.3721 24.6924C85.8799 24.5557 86.1875 24.458 86.2949 24.3994C86.6465 24.2334 86.9346 23.9551 87.1592 23.5645C87.2568 23.3887 87.3203 22.9443 87.3496 22.2314C87.3594 22.1143 87.3936 21.8115 87.4521 21.3232C87.5107 20.8838 87.54 20.5469 87.54 20.3125C87.54 19.1016 87.54 18.4961 87.54 18.4961C87.5303 18.0469 87.5156 17.5977 87.4961 17.1484C87.5059 16.6406 87.623 16.2061 87.8477 15.8447C87.7695 15.7764 87.6816 15.6494 87.584 15.4639C87.5059 14.9365 87.4668 14.3896 87.4668 13.8232C87.4668 13.8135 87.5059 13.6475 87.584 13.3252C87.6523 13.0615 87.6572 12.8516 87.5986 12.6953C87.4424 12.2754 87.4229 11.748 87.54 11.1133C87.5791 10.9277 87.5156 10.3467 87.3496 9.37012C87.3496 9.05762 87.2666 8.64746 87.1006 8.13965C86.8955 7.88574 86.6221 7.71973 86.2803 7.6416C85.9971 7.58301 85.7139 7.52441 85.4307 7.46582C85.4307 6.90918 85.416 6.79199 85.3867 7.11426C85.4062 6.95801 85.5039 6.875 85.6797 6.86523C86.0703 6.8457 86.6953 6.80176 87.5547 6.7334C88.3457 6.66504 88.7559 6.63086 88.7852 6.63086H90.6309C90.9824 6.63086 91.3389 6.60156 91.7002 6.54297C92.0713 6.47461 92.3838 6.44043 92.6377 6.44043C92.96 6.44043 93.3701 6.46973 93.8682 6.52832C94.1709 6.59668 94.6201 6.69434 95.2158 6.82129C95.2744 6.86035 95.3672 6.9043 95.4941 6.95312C96.4219 7.08984 97.2373 7.5293 97.9404 8.27148C98.4482 8.79883 98.7998 9.53613 98.9951 10.4834ZM95.8896 12.124C95.8896 11.8115 95.875 11.6016 95.8457 11.4941C95.3574 10.2148 94.9473 9.38965 94.6152 9.01855C94.1562 8.52051 93.6436 8.20801 93.0771 8.08105C92.7061 7.99316 92.1006 7.96875 91.2607 8.00781C91.1729 8.00781 91.041 8.06152 90.8652 8.16895C90.709 9.81934 90.6113 11.1572 90.5723 12.1826C90.6211 12.2607 90.665 12.373 90.7041 12.5195C90.7041 12.6562 90.6602 13.2129 90.5723 14.1895C90.5234 14.8145 90.543 15.4492 90.6309 16.0938C90.6602 16.123 90.6992 16.1621 90.748 16.2109H92.1689C92.3252 16.2598 92.4961 16.2842 92.6816 16.2842C93.248 16.2842 93.79 16.1035 94.3076 15.7422C94.8252 15.3809 95.1475 15.083 95.2744 14.8486C95.6846 14.0479 95.8896 13.1396 95.8896 12.124ZM120.323 15.874C120.323 16.4307 120.309 16.8555 120.279 17.1484C120.182 17.373 120.079 17.7197 119.972 18.1885C119.952 18.6572 119.85 19.1553 119.664 19.6826C119.508 19.8779 119.278 20.1953 118.976 20.6348C118.897 20.9277 118.683 21.3477 118.331 21.8945C118.048 22.1777 117.618 22.6172 117.042 23.2129C116.954 23.2422 116.842 23.291 116.705 23.3594C116.578 23.4766 116.354 23.6475 116.031 23.8721C114.43 24.7217 112.906 25.2051 111.461 25.3223H109.527C109.547 25.3223 109.508 25.293 109.41 25.2344C108.355 25.2051 107.564 25.0586 107.037 24.7949C106.9 24.7656 106.715 24.7168 106.48 24.6484C106.09 24.4922 105.504 24.2139 104.723 23.8135C103.785 23.2178 102.906 22.3779 102.086 21.2939C101.627 20.6885 101.222 19.9072 100.87 18.9502C100.538 18.0615 100.353 17.3145 100.313 16.709C100.245 15.6738 100.284 14.6582 100.431 13.6621C100.489 13.5352 100.567 13.3545 100.665 13.1201C100.724 12.8271 100.826 12.4023 100.973 11.8457C101.188 11.5039 101.471 11.0059 101.822 10.3516C101.871 10.2441 101.896 10.1172 101.896 9.9707C101.944 9.92188 102.042 9.93652 102.188 10.0146C102.237 9.87793 102.237 9.68262 102.188 9.42871C102.315 9.38965 102.496 9.30664 102.73 9.17969C102.809 8.97461 102.994 8.72559 103.287 8.43262C103.873 8.12012 104.757 7.66113 105.938 7.05566C106.241 6.90918 106.627 6.78223 107.096 6.6748C108.287 6.40137 109.098 6.26465 109.527 6.26465H110.67C111.559 6.26465 112.32 6.34766 112.955 6.51367C113.297 6.61133 114.049 6.88477 115.211 7.33398C115.455 7.49023 115.841 7.73437 116.368 8.06641C117.13 8.55469 117.823 9.22363 118.448 10.0732C119.005 10.835 119.366 11.5381 119.532 12.1826C119.61 12.29 119.708 12.4512 119.825 12.666C120.04 13.252 120.162 14.1211 120.191 15.2734C120.191 15.3125 120.211 15.4053 120.25 15.5518C120.299 15.6885 120.323 15.7959 120.323 15.874ZM117.071 16.2549C116.983 15.0244 116.744 13.9014 116.354 12.8857C115.855 11.5771 115.27 10.5469 114.596 9.79492C113.639 8.74023 112.594 8.12012 111.461 7.93457C110.387 7.75879 109.649 7.7002 109.249 7.75879C108.468 7.85645 107.804 8.02734 107.257 8.27148C107.188 8.30078 106.744 8.55957 105.924 9.04785C105.875 9.14551 105.787 9.2627 105.66 9.39941C105.582 9.41895 105.494 9.44824 105.396 9.4873C105.201 9.74121 104.957 10.083 104.664 10.5127C104.625 10.6299 104.562 10.7959 104.474 11.0107C104.327 11.2451 104.171 11.5234 104.005 11.8457C103.917 12.207 103.78 12.749 103.595 13.4717C103.604 13.7451 103.6 14.1602 103.58 14.7168C103.58 14.7461 103.561 14.8096 103.521 14.9072C103.482 15.0049 103.468 15.0732 103.478 15.1123C103.614 15.7471 103.81 16.626 104.063 17.749C104.034 17.8271 104.015 17.9199 104.005 18.0273C104.073 18.1641 104.171 18.3496 104.298 18.584C104.308 18.7109 104.337 18.877 104.386 19.082C104.796 19.9023 105.011 20.3223 105.03 20.3418C105.323 20.8496 105.724 21.333 106.231 21.792C106.241 21.8018 106.305 22.002 106.422 22.3926C106.461 22.4023 106.627 22.4316 106.92 22.4805C107.398 22.9199 107.765 23.2178 108.019 23.374C108.741 23.8037 110.05 23.9355 111.944 23.7695C112.101 23.7207 112.306 23.6572 112.56 23.5791C112.882 23.5107 113.346 23.3496 113.951 23.0957C114.088 22.9688 114.269 22.8174 114.493 22.6416C115.47 22.0361 116.051 21.2891 116.236 20.4004C116.334 20.2832 116.451 20.1172 116.588 19.9023C116.607 19.7168 116.637 19.4971 116.676 19.2432C116.734 19.1846 116.793 19.0918 116.852 18.9648C116.871 18.7402 116.92 18.252 116.998 17.5C117.066 16.8945 117.091 16.4795 117.071 16.2549ZM139.044 6.7041C139.044 7.06543 138.98 7.25586 138.854 7.27539C138.668 7.29492 138.395 7.35352 138.033 7.45117C137.877 7.44141 137.662 7.49512 137.389 7.6123C137.057 7.91504 136.861 8.34961 136.803 8.91602C136.773 8.96484 136.739 9.04297 136.7 9.15039C136.651 9.69727 136.637 10.0391 136.656 10.1758C136.793 11.0645 136.861 11.5137 136.861 11.5234V12.6514C136.861 12.6904 136.842 12.7686 136.803 12.8857C136.773 12.9932 136.754 13.0664 136.744 13.1055C136.734 13.1738 136.739 13.3057 136.759 13.501C136.847 14.2822 136.891 15.3027 136.891 16.5625C136.891 16.5723 136.871 16.6064 136.832 16.665C136.803 16.7139 136.788 16.7529 136.788 16.7822C136.788 17.7295 136.798 18.1055 136.817 17.9102C136.778 18.4277 136.686 19.1943 136.539 20.21C136.48 20.5127 136.31 20.9766 136.026 21.6016C135.753 22.2168 135.519 22.6562 135.323 22.9199C135.089 23.2227 134.659 23.5986 134.034 24.0479C133.536 24.4092 133.033 24.7656 132.525 25.1172C132.379 25.0098 131.959 25.0488 131.266 25.2344C131.129 25.3125 130.914 25.4199 130.621 25.5566C130.572 25.5762 130.494 25.5615 130.387 25.5127C130.279 25.4639 130.221 25.4395 130.211 25.4395H129.127C129.264 25.4395 129.015 25.3711 128.38 25.2344C128.155 25.2246 127.833 25.1855 127.413 25.1172C127.159 24.9805 126.769 24.8096 126.241 24.6045C126.085 24.5947 125.851 24.5703 125.538 24.5312C125.431 24.502 125.24 24.4092 124.967 24.2529C123.209 23.2373 122.291 21.499 122.213 19.0381L122.081 14.4092C122.013 13.1299 121.876 11.2256 121.671 8.69629C121.612 8.13965 121.402 7.74902 121.041 7.52441C120.934 7.44629 120.47 7.30469 119.649 7.09961C119.62 7.04102 119.605 6.9873 119.605 6.93848C119.605 6.75293 119.771 6.68457 120.104 6.7334C120.865 6.83105 121.739 6.87988 122.726 6.87988H124.146C124.176 6.87988 124.312 6.86035 124.557 6.82129C124.801 6.78223 124.986 6.7627 125.113 6.7627C125.582 6.79199 126.285 6.77246 127.223 6.7041C127.301 6.80176 127.34 6.88965 127.34 6.96777C127.34 7.12402 127.037 7.25098 126.432 7.34863C126.383 7.3877 126.295 7.45117 126.168 7.53906C126.1 7.56836 126.002 7.62207 125.875 7.7002C125.699 7.83691 125.602 7.95898 125.582 8.06641C125.406 8.95508 125.196 9.91699 124.952 10.9521C124.962 10.9229 125.011 11.084 125.099 11.4355C125.108 11.4355 125.069 11.6895 124.981 12.1973C125.021 12.3633 124.996 12.7539 124.908 13.3691C124.928 13.252 124.981 13.6133 125.069 14.4531C125.079 14.5801 125.055 15.0098 124.996 15.7422C125.006 15.791 125.025 15.8545 125.055 15.9326C125.055 15.9814 125.021 16.3428 124.952 17.0166C124.933 17.2314 124.977 17.6953 125.084 18.4082C125.143 18.4863 125.206 18.6035 125.274 18.7598C125.284 18.7891 125.313 19.1211 125.362 19.7559C125.353 19.873 125.348 20.0488 125.348 20.2832C125.396 20.3906 125.46 20.542 125.538 20.7373C125.567 20.8154 125.562 20.9375 125.523 21.1035C125.641 21.2598 125.807 21.4941 126.021 21.8066C126.139 22.0215 126.373 22.3145 126.725 22.6855C126.988 22.8906 127.252 23.0957 127.516 23.3008C127.887 23.5645 128.219 23.7207 128.512 23.7695C128.775 23.7988 129.083 23.8135 129.435 23.8135H131.383C131.92 23.8135 132.486 23.501 133.082 22.876C133.648 22.29 134.015 21.6797 134.181 21.0449C134.259 20.5078 134.352 19.8535 134.459 19.082C134.537 18.5742 134.537 17.8857 134.459 17.0166L134.488 10.0879C134.42 9.51172 134.269 8.84277 134.034 8.08105C133.937 7.76855 133.565 7.52441 132.921 7.34863C132.804 7.31934 132.599 7.27539 132.306 7.2168C132.247 7.11914 132.218 6.99219 132.218 6.83594C132.169 6.83594 132.32 6.81641 132.672 6.77734C133.404 6.68945 134.103 6.71875 134.767 6.86523C134.884 6.83594 135.045 6.81641 135.25 6.80664C135.621 6.875 136.266 6.86035 137.184 6.7627C137.223 6.75293 137.296 6.7627 137.403 6.79199C137.511 6.81152 137.584 6.82129 137.623 6.82129C137.73 6.82129 138.204 6.78223 139.044 6.7041ZM165.836 28.7354C165.836 28.8525 165.831 28.9697 165.821 29.0869C165.802 29.2334 165.729 29.3262 165.602 29.3652C165.484 29.4141 165.235 29.4629 164.854 29.5117C164.728 29.5312 164.459 29.6045 164.049 29.7314C163.678 29.8486 163.399 29.9072 163.214 29.9072C163.146 29.9072 163.082 29.8975 163.023 29.8779C162.965 29.8682 162.872 29.8145 162.745 29.7168C162.579 29.5996 162.511 29.502 162.54 29.4238C162.433 29.3652 162.228 29.3799 161.925 29.4678C162.13 29.5752 162.379 29.7119 162.672 29.8779C161.939 29.917 161.446 29.8486 161.192 29.6729C161.212 29.585 161.246 29.4482 161.295 29.2627C161.285 29.2529 161.256 29.2334 161.207 29.2041C161.256 29.1943 160.846 29.1504 159.977 29.0723C159.977 29.0625 159.942 29.0869 159.874 29.1455C159.952 29.1846 160.064 29.2383 160.211 29.3066C159.771 29.3262 159.493 29.2969 159.376 29.2188C159.259 29.0625 159.142 28.9111 159.024 28.7646C158.8 28.5107 158.6 28.4033 158.424 28.4424C158.199 28.1396 157.667 27.5781 156.827 26.7578C156.095 26.0547 155.714 25.625 155.685 25.4688C155.587 25.4102 155.465 25.3076 155.318 25.1611C155.172 24.9756 154.996 24.6875 154.791 24.2969C154.752 24.1992 154.674 24.1455 154.557 24.1357C154.42 23.7061 154.117 23.3301 153.648 23.0078C153.727 22.8906 153.736 22.7881 153.678 22.7002C153.434 22.417 153.185 22.1289 152.931 21.8359C152.599 21.4453 152.433 21.1084 152.433 20.8252C152.433 20.7764 152.438 20.7275 152.447 20.6787C152.477 20.6494 152.584 20.6543 152.77 20.6934C152.818 20.7324 152.892 20.7861 152.989 20.8545C153.204 20.8154 153.375 20.7373 153.502 20.6201C153.678 20.7764 153.907 21.0156 154.19 21.3379C154.337 21.3086 154.41 21.2207 154.41 21.0742C154.41 20.8203 154.269 20.6982 153.985 20.708C154.005 20.6885 154.024 20.6543 154.044 20.6055C154.073 20.5566 154.098 20.5273 154.117 20.5176C154.176 20.5664 154.273 20.6348 154.41 20.7227C154.488 20.7227 154.547 20.6934 154.586 20.6348C154.615 20.5176 154.615 20.3711 154.586 20.1953C154.352 20 154.078 19.9023 153.766 19.9023C153.59 19.9023 153.331 19.9463 152.989 20.0342C152.647 20.1123 152.403 20.1514 152.257 20.1514C152.071 20.1514 151.91 20.1123 151.773 20.0342C151.432 19.8389 151.207 19.4971 151.1 19.0088C151.051 18.9697 150.987 18.916 150.909 18.8477C150.919 18.8086 150.929 18.7695 150.938 18.7305C150.938 18.5742 150.855 18.4375 150.689 18.3203C150.523 18.2031 150.367 18.1445 150.221 18.1445C149.664 18.1543 148.912 18.1543 147.965 18.1445C146.852 18.1348 146.1 18.1299 145.709 18.1299C145.621 18.1299 145.577 18.1738 145.577 18.2617C145.558 18.8281 145.558 19.1504 145.577 19.2285V21.1182C145.577 21.1182 145.587 21.3916 145.606 21.9385C145.626 22.4854 145.636 22.8955 145.636 23.1689C145.636 23.208 145.611 23.2861 145.562 23.4033C145.523 23.5205 145.514 23.6133 145.533 23.6816C145.621 23.8086 145.724 24.0137 145.841 24.2969C145.948 25.0098 145.982 25.4688 145.943 25.6738C145.807 25.7715 145.587 25.9277 145.284 26.1426C145.284 26.2012 145.299 26.2402 145.328 26.2598C145.875 26.2695 146.749 26.3818 147.95 26.5967C148.048 26.626 148.194 26.6748 148.39 26.7432C148.409 26.8213 148.395 27.0215 148.346 27.3438C148.189 27.4609 148.053 27.5195 147.936 27.5195C147.643 27.5195 146.861 27.4268 145.592 27.2412L142.413 27.1826C142.208 27.2412 141.886 27.2998 141.446 27.3584C140.753 27.3877 139.928 27.4023 138.971 27.4023C138.971 27.2363 138.976 26.9971 138.985 26.6846C139.298 26.5576 139.752 26.416 140.348 26.2598C140.66 26.1816 140.992 25.9229 141.344 25.4834C141.695 25.0537 141.881 24.6973 141.9 24.4141C142.027 23.0566 142.091 22.3145 142.091 22.1875V11.6699C142.091 11.6309 142.076 11.5137 142.047 11.3184C142.018 11.123 142.003 10.9912 142.003 10.9229C141.993 10.7959 142.013 10.498 142.062 10.0293C142.11 9.56055 142.135 9.18945 142.135 8.91602C142.135 8.79883 142.115 8.57422 142.076 8.24219C142.027 7.87109 142.003 7.60254 142.003 7.43652C141.983 7.15332 141.93 6.73828 141.842 6.19141C141.773 6.05469 141.681 5.84473 141.563 5.56152C141.476 5.21973 141.09 4.95605 140.406 4.77051C140.318 4.73145 140.167 4.66797 139.952 4.58008C139.776 4.58008 139.527 4.57031 139.205 4.55078C138.971 4.39453 138.937 4.16016 139.103 3.84766C139.386 3.7793 139.806 3.70117 140.362 3.61328C141.944 3.48633 142.857 3.42285 143.102 3.42285H145.196C145.235 3.42285 145.509 3.39355 146.017 3.33496C146.534 3.27637 146.817 3.24707 146.866 3.24707H148.038C148.087 3.24707 148.243 3.26172 148.507 3.29102C148.81 3.32031 149.02 3.33984 149.137 3.34961C149.322 3.32031 149.591 3.2959 149.942 3.27637C150.948 3.40332 152.086 3.61328 153.355 3.90625C153.824 4.01367 154.771 4.63379 156.197 5.7666C156.246 5.84473 156.246 5.95215 156.197 6.08887C156.031 6.25488 155.694 6.46973 155.187 6.7334C154.688 6.9873 154.352 7.20703 154.176 7.39258C154.195 7.50977 154.308 7.58301 154.513 7.6123C154.688 7.63184 154.85 7.61719 154.996 7.56836C155.016 7.50977 155.074 7.44629 155.172 7.37793C155.445 7.3291 155.641 7.30469 155.758 7.30469C155.807 7.4707 155.919 7.6416 156.095 7.81738C156.251 7.76855 156.329 7.66602 156.329 7.50977C156.319 7.36328 156.246 7.22656 156.109 7.09961C156.246 7.06055 156.388 7.06055 156.534 7.09961C156.739 7.1582 156.92 7.1875 157.076 7.1875C157.174 7.69531 157.276 8.20312 157.384 8.71094C157.521 9.39453 157.589 9.96582 157.589 10.4248C157.589 10.8154 157.545 11.1719 157.457 11.4941C157.32 12.0215 157.037 12.8027 156.607 13.8379C156.354 14.2871 155.875 14.9365 155.172 15.7861C155.152 15.8154 154.693 16.1719 153.795 16.8555C154.068 17.373 154.454 17.9443 154.952 18.5693C155.343 19.0576 155.646 19.502 155.86 19.9023C156.095 20.3418 156.275 20.6494 156.402 20.8252C156.422 20.8936 156.456 20.9814 156.505 21.0889C157.052 21.7529 157.838 22.7441 158.863 24.0625C158.893 24.1211 158.893 24.1748 158.863 24.2236C159.273 24.5361 159.786 24.9805 160.401 25.5566C160.675 25.8301 161.051 26.2451 161.529 26.8018C161.217 26.8311 161.061 26.9775 161.061 27.2412C161.061 27.4854 161.183 27.6562 161.427 27.7539C161.476 27.4023 161.627 27.2266 161.881 27.2266C161.92 27.2266 161.959 27.2314 161.998 27.2412C162.037 27.251 162.276 27.3633 162.716 27.5781C163.37 27.9004 164.024 28.2227 164.679 28.5449C164.962 28.6621 165.348 28.7256 165.836 28.7354ZM153.18 20.3857C153.062 20.5225 152.95 20.5762 152.843 20.5469C152.862 20.4395 152.931 20.3613 153.048 20.3125C153.067 20.3223 153.111 20.3467 153.18 20.3857ZM154.059 11.3184C153.795 11.2305 153.663 11.0986 153.663 10.9229V9.37012C153.663 9.32129 153.648 9.2627 153.619 9.19434C153.59 9.11621 153.57 9.0625 153.561 9.0332C153.502 8.4082 153.189 7.7002 152.623 6.90918C151.998 6.04004 151.349 5.53711 150.675 5.40039C150.577 5.3418 150.445 5.27832 150.279 5.20996C149.293 5.00488 148.736 4.90234 148.609 4.90234H147.32C146.832 4.90234 146.388 4.96582 145.987 5.09277C145.948 5.1123 145.836 5.22949 145.65 5.44434C145.719 6.02051 145.748 6.34277 145.738 6.41113C145.738 6.4209 145.719 6.4502 145.68 6.49902C145.65 6.54785 145.636 6.59668 145.636 6.64551V8.68164C145.636 8.73047 145.606 8.81836 145.548 8.94531C145.489 9.0625 145.465 9.15039 145.475 9.20898C145.533 9.44336 145.597 9.67285 145.665 9.89746C145.733 10.1514 145.733 10.376 145.665 10.5713C145.509 11.0303 145.489 11.6406 145.606 12.4023C145.587 12.2461 145.577 12.4756 145.577 13.0908V15.1855C145.577 15.3125 145.562 15.4688 145.533 15.6543C145.514 15.791 145.509 15.9033 145.519 15.9912C145.548 16.1182 145.611 16.2891 145.709 16.5039C145.943 16.5723 146.285 16.6553 146.734 16.7529L149.591 16.8115C149.894 16.6846 150.353 16.5039 150.968 16.2695C151.202 16.2012 151.51 16.0742 151.891 15.8887C152.467 15.3613 152.877 14.8682 153.121 14.4092C153.326 14.0381 153.482 13.54 153.59 12.915C153.6 12.7295 153.634 12.4463 153.692 12.0654C153.712 11.9189 153.746 11.7285 153.795 11.4941C153.844 11.3477 153.932 11.2891 154.059 11.3184ZM54.8301 46.8154C54.7832 46.8799 54.707 46.959 54.6016 47.0527C54.3379 47.1992 54.1475 47.2725 54.0303 47.2725H52.9756C52.6182 47.2725 52.3516 47.2578 52.1758 47.2285C52.0469 47.1816 51.8506 47.1143 51.5869 47.0264C51.3643 46.9561 50.9746 46.6045 50.418 45.9717C50.3711 45.9189 50.1426 45.541 49.7324 44.8379C49.3633 44.1992 49.0732 43.6631 48.8623 43.2295C48.8096 43.0654 48.7158 42.8545 48.5811 42.5967C48.5225 42.5322 48.376 42.5088 48.1416 42.5264C47.9951 42.5439 47.8457 42.5615 47.6934 42.5791C47.5 42.5674 47.2129 42.5645 46.832 42.5703C46.791 42.5703 46.7412 42.6055 46.6826 42.6758C46.7061 42.9043 46.7354 43.6221 46.7705 44.8291C46.7764 45.0635 46.8232 45.3711 46.9111 45.752C46.9111 45.8574 46.9404 46.0127 46.999 46.2178C47.1221 46.4287 47.3213 46.5811 47.5967 46.6748C47.8193 46.7393 48.042 46.8037 48.2646 46.8682C48.2705 46.9326 48.2646 47.0088 48.2471 47.0967C48.0771 47.167 47.9043 47.2021 47.7285 47.2021H46.8057C46.7939 47.2021 46.7148 47.1875 46.5684 47.1582C46.4219 47.1289 46.3164 47.1143 46.252 47.1143C46.0703 47.1143 45.7861 47.1289 45.3994 47.1582C45.0186 47.1875 44.8281 47.2021 44.8281 47.2021H43.9404C43.8525 47.2021 43.7471 47.1758 43.624 47.123C43.624 47.1055 43.6152 47.0703 43.5977 47.0176C43.5859 46.9648 43.5801 46.9268 43.5801 46.9033C43.8848 46.8213 44.0723 46.7627 44.1426 46.7275C44.3594 46.6279 44.5352 46.458 44.6699 46.2178C44.7285 46.1123 44.7695 45.8428 44.793 45.4092C44.793 45.3389 44.8135 45.1572 44.8545 44.8643C44.8896 44.5947 44.9072 44.3896 44.9072 44.249C44.9072 43.4521 44.9131 43.0215 44.9248 42.957C44.9424 42.8926 44.998 42.7871 45.0918 42.6406C45.0508 42.5996 44.998 42.5205 44.9336 42.4033C44.9043 42.2979 44.8896 42.1484 44.8896 41.9551V41.0674C44.8896 41.0615 44.8809 40.9707 44.8633 40.7949C44.8691 40.8652 44.8955 40.4785 44.9424 39.6348C44.9365 39.623 44.9219 39.6025 44.8984 39.5732C44.834 39.3447 44.8369 39.043 44.9072 38.668C44.9307 38.5625 44.8926 38.2109 44.793 37.6133C44.7871 37.4258 44.7344 37.1797 44.6348 36.875C44.5059 36.7168 44.3389 36.6172 44.1338 36.5762C43.958 36.5352 43.7852 36.4971 43.6152 36.4619C43.6152 36.1279 43.6064 36.0576 43.5889 36.251C43.6006 36.1572 43.6592 36.1074 43.7646 36.1016C44.0049 36.0898 44.3887 36.0635 44.916 36.0225C45.4023 35.9756 45.6514 35.9521 45.6631 35.9521H46.7969C47.0078 35.9521 47.2246 35.9346 47.4473 35.8994C47.6699 35.8643 47.8604 35.8467 48.0186 35.8467C48.2178 35.8467 48.4668 35.8643 48.7656 35.8994C48.9531 35.9404 49.2285 35.999 49.5918 36.0752C49.627 36.0986 49.6855 36.125 49.7676 36.1543C50.3301 36.2422 50.8281 36.5088 51.2617 36.9541C51.502 37.2061 51.7158 37.6514 51.9033 38.29C51.9092 38.3838 51.918 38.5215 51.9297 38.7031C51.9414 38.8496 51.9297 39.0693 51.8945 39.3623C51.8184 39.9834 51.6719 40.4521 51.4551 40.7686C51.2559 41.0615 50.8721 41.4717 50.3037 41.999C50.2979 42.1221 50.3213 42.2305 50.374 42.3242C50.7432 43.0332 51.1123 43.7422 51.4814 44.4512C51.9209 45.2188 52.4541 45.8721 53.0811 46.4111C53.1338 46.458 53.3506 46.5342 53.7314 46.6396C53.96 46.6982 54.1533 46.7129 54.3115 46.6836C54.5459 46.6367 54.7129 46.6191 54.8125 46.6309C54.8242 46.6719 54.8301 46.7334 54.8301 46.8154ZM50.0137 39.292C50.0137 39.0986 49.999 38.9697 49.9697 38.9053C49.6768 38.126 49.4277 37.6279 49.2227 37.4111C48.9414 37.1064 48.6279 36.9131 48.2822 36.8311C48.0537 36.7783 47.6846 36.7637 47.1748 36.7871C47.1221 36.793 47.04 36.8252 46.9287 36.8838C46.835 37.8916 46.7764 38.7061 46.7529 39.3271C46.7822 39.374 46.8115 39.4414 46.8408 39.5293C46.8408 39.6113 46.8145 39.9453 46.7617 40.5312C46.7266 40.918 46.7354 41.3047 46.7881 41.6914C46.8057 41.709 46.8291 41.7354 46.8584 41.7705H47.7285C47.8281 41.7939 47.9336 41.8057 48.0449 41.8057C48.3906 41.8057 48.7217 41.6973 49.0381 41.4805C49.3604 41.2578 49.5566 41.0762 49.627 40.9355C49.8848 40.4551 50.0137 39.9072 50.0137 39.292ZM62.5732 44.1963C62.5557 44.501 62.5176 44.9316 62.459 45.4883C62.3887 45.6406 62.3008 45.8545 62.1953 46.1299C62.1719 46.2471 62.1279 46.4111 62.0635 46.6221C62.04 46.6865 61.9639 46.7949 61.835 46.9473C61.6826 47.1348 61.5596 47.2285 61.4658 47.2285H59.2246C59.1836 47.2285 58.9199 47.2197 58.4336 47.2021C57.9473 47.1846 57.6836 47.1758 57.6426 47.1758H56.2891C56.2539 47.1758 56.0723 47.1582 55.7441 47.123C55.4219 47.0938 55.2402 47.0791 55.1992 47.0791H53.8721L53.7578 46.9561C53.8223 46.874 54.0771 46.6982 54.5225 46.4287C54.8271 46.2354 54.9795 46.001 54.9795 45.7256V42.9482C54.9795 42.4971 55.0498 41.8906 55.1904 41.1289C55.1143 40.8945 55.0996 40.6016 55.1465 40.25C55.041 40.1621 54.9883 40.0391 54.9883 39.8809C54.9883 39.8691 55.0469 39.6289 55.1641 39.1602C55.1699 39.1191 55.1406 39.0371 55.0762 38.9141C54.9941 38.7676 54.9502 38.6914 54.9443 38.6855C54.9033 38.5625 54.8857 38.3691 54.8916 38.1055C54.8916 37.7422 54.8916 37.543 54.8916 37.5078C54.874 37.3086 54.833 37.1475 54.7686 37.0244C54.6807 36.8545 54.5371 36.7197 54.3379 36.6201C54.1621 36.5439 53.9863 36.4648 53.8105 36.3828C53.8926 36.1895 53.9805 36.0869 54.0742 36.0752C54.2559 36.0986 54.5166 36.1045 54.8564 36.0928C55.2314 36.0049 55.4131 35.9609 55.4014 35.9609H56.957C56.9805 35.9609 57.1562 35.9814 57.4844 36.0225C57.8184 36.0635 58.0703 36.0869 58.2402 36.0928C58.3105 36.0928 58.8965 36.0547 59.998 35.9785C60.25 35.9609 60.9092 35.9785 61.9756 36.0312C62.0693 36.0957 62.1162 36.1748 62.1162 36.2686C62.1162 36.3213 62.0957 36.3975 62.0547 36.4971C62.0195 36.5967 62.002 36.6699 62.002 36.7168C61.9961 36.9102 61.9346 37.5488 61.8174 38.6328C61.7998 38.668 61.7148 38.7236 61.5625 38.7998C61.5273 38.7412 61.4189 38.4277 61.2373 37.8594C61.1201 37.4902 60.9033 37.2881 60.5869 37.2529C60.458 37.2236 60.3262 37.1943 60.1914 37.165C60.0098 37.124 59.8691 37.1182 59.7695 37.1475C59.5117 37.2236 58.9521 37.2324 58.0908 37.1738C57.6162 37.1387 57.2588 37.1475 57.0186 37.2002C56.9482 37.2178 56.9014 37.2852 56.8779 37.4023C57.0889 38.0879 57.0977 38.6943 56.9043 39.2217C56.916 39.1865 56.9219 39.333 56.9219 39.6611C56.9219 39.7432 56.9072 39.9131 56.8779 40.1709C56.8486 40.3818 56.8428 40.5518 56.8604 40.6807C56.8662 40.7393 56.9219 40.8154 57.0273 40.9092H60.3408C60.4463 40.874 60.5488 40.8389 60.6484 40.8037C60.8125 40.7451 60.9268 40.6543 60.9912 40.5312C61.0498 40.3789 61.1582 40.168 61.3164 39.8984C61.5039 39.8984 61.624 39.9629 61.6768 40.0918C61.6533 40.4258 61.6299 40.8535 61.6064 41.375C61.6006 41.7207 61.5596 42.2275 61.4834 42.8955C61.46 42.9951 61.3428 43.0273 61.1318 42.9922C61.0557 42.8516 60.9209 42.667 60.7275 42.4385C60.3701 42.1689 60.0449 42.0342 59.752 42.0342H58.5391C58.4629 42.0342 58.3135 42.0195 58.0908 41.9902C57.8682 41.9609 57.7012 41.9463 57.5898 41.9463C57.2793 41.9463 57.083 42.0371 57.001 42.2188C56.9072 42.4238 56.8604 42.582 56.8604 42.6934C56.8604 42.7988 56.8809 42.998 56.9219 43.291C56.9629 43.584 56.9805 43.8096 56.9746 43.9678C56.9688 44.0498 56.9395 44.2051 56.8867 44.4336C56.8398 44.6562 56.8164 44.832 56.8164 44.9609C56.8164 45.0605 56.8281 45.1514 56.8516 45.2334C56.8926 45.374 57.0508 45.5439 57.3262 45.7432C57.6074 45.9424 57.8477 46.0566 58.0469 46.0859C58.0762 46.0977 58.1055 46.1094 58.1348 46.1211C58.1934 46.1387 58.2461 46.1475 58.293 46.1475H59.752C60.0801 46.1475 60.3555 46.0947 60.5781 45.9893C60.8887 45.8486 61.1904 45.6143 61.4834 45.2861C61.8057 44.9229 61.9785 44.5771 62.002 44.249C62.1543 44.1494 62.3447 44.1318 62.5732 44.1963ZM72.9443 36.2246C72.9326 36.4004 72.8945 36.7256 72.8301 37.2002C72.7773 37.5752 72.751 37.8682 72.751 38.0791C72.751 38.2725 72.7686 38.4541 72.8037 38.624C72.7275 38.6885 72.6895 38.7676 72.6895 38.8613C72.6895 38.9023 72.7012 38.9727 72.7246 39.0723C72.748 39.166 72.7539 39.2393 72.7422 39.292C72.6895 39.3682 72.6045 39.418 72.4873 39.4414C72.3643 39.4707 72.2676 39.4531 72.1973 39.3887C72.2441 39.207 72.2676 39.0283 72.2676 38.8525C72.2676 38.8467 72.2471 38.7822 72.2061 38.6592C72.2061 38.5771 72.1885 38.4658 72.1533 38.3252C71.9717 38.0439 71.8779 37.8975 71.8721 37.8857C71.7432 37.71 71.6113 37.5752 71.4766 37.4814C71.1016 37.2295 70.7031 37.0596 70.2812 36.9717C70.0117 36.9072 69.9033 36.875 69.9561 36.875H68.5322C68.3096 36.9219 67.9785 37.0039 67.5391 37.1211C67.0352 37.2793 66.5635 37.584 66.124 38.0352C66.0596 38.0996 65.9219 38.3398 65.7109 38.7559C65.4121 39.3594 65.2627 39.8486 65.2627 40.2236C65.2627 40.2822 65.2686 40.332 65.2803 40.373C65.2686 40.3262 65.2539 40.3936 65.2363 40.5752C65.2012 41.0088 65.1895 41.2842 65.2012 41.4014C65.207 41.4072 65.2158 41.4307 65.2275 41.4717C65.2451 41.5127 65.2539 41.5449 65.2539 41.5684C65.2422 41.709 65.2744 42.0518 65.3506 42.5967C65.3506 42.7256 65.3682 42.9248 65.4033 43.1943C65.4502 43.2588 65.5088 43.3555 65.5791 43.4844C65.5967 43.5664 65.626 43.6777 65.667 43.8184C65.7725 43.9414 65.9102 44.1289 66.0801 44.3809C66.2559 44.7559 66.4346 45.0166 66.6162 45.1631C66.8037 45.2803 67.0703 45.4619 67.416 45.708C67.4453 45.7842 67.498 45.8896 67.5742 46.0244C67.6211 46.0303 67.6943 46.0215 67.7939 45.998C67.8994 45.9746 67.9785 45.9629 68.0312 45.9629C68.084 45.9629 68.2275 45.9893 68.4619 46.042C68.7021 46.0889 68.8809 46.1152 68.998 46.1211C69.4082 46.1445 69.8711 46.1094 70.3867 46.0156C70.5156 45.9922 70.7148 45.9629 70.9844 45.9277C71.4824 45.8457 71.916 45.4414 72.2852 44.7148C72.291 44.7031 72.3086 44.583 72.3379 44.3545C72.3613 44.2842 72.3877 44.1846 72.417 44.0557C72.4229 43.9092 72.4375 43.6865 72.4609 43.3877C72.5078 43.3701 72.5459 43.3613 72.5752 43.3613C72.7451 43.3613 72.8359 43.5605 72.8477 43.959C72.8652 44.5742 72.8389 45.1719 72.7686 45.752C72.7627 45.9336 72.71 46.1797 72.6104 46.4902C72.5635 46.5547 72.3877 46.6279 72.083 46.71C71.626 46.8271 71.2861 46.9004 71.0635 46.9297C70.8467 46.959 70.5215 47 70.0879 47.0527C69.0684 47.1699 68.2158 47.1201 67.5303 46.9033C67.4717 46.9033 67.3926 46.8975 67.293 46.8857C67.2168 46.8447 67.1084 46.7949 66.9678 46.7363C66.3291 46.5664 65.6875 46.2002 65.043 45.6377C64.3691 45.04 63.9297 44.4277 63.7246 43.8008C63.6777 43.6953 63.6074 43.54 63.5137 43.335C63.5137 43.2881 63.5078 43.2207 63.4961 43.1328C63.4434 43.0449 63.3818 42.9131 63.3115 42.7373C63.2822 42.5908 63.25 42.3799 63.2148 42.1045C63.209 41.9404 63.2207 41.5508 63.25 40.9355C63.2559 40.7949 63.376 40.209 63.6104 39.1777C63.6982 39.0312 63.8242 38.8203 63.9883 38.5449C64.123 38.3164 64.2256 38.1553 64.2959 38.0615C64.4365 37.8564 64.5537 37.7393 64.6475 37.71C64.7764 37.7217 64.8613 37.707 64.9023 37.666C65.1602 37.4023 65.5469 37.0215 66.0625 36.5234C66.1035 36.5352 66.1621 36.541 66.2383 36.541C66.3027 36.4766 66.4023 36.4062 66.5371 36.3301C66.6016 36.3477 66.7012 36.3623 66.8359 36.374C67.1582 36.2803 67.6328 36.166 68.2598 36.0312C68.5 35.9961 68.79 35.9785 69.1299 35.9785H70.2549C70.2549 35.9785 70.7207 36.0195 71.6523 36.1016C71.9805 36.0957 72.4111 36.1367 72.9443 36.2246ZM85.4688 41.5244C85.4688 41.8584 85.46 42.1133 85.4424 42.2891C85.3838 42.4238 85.3223 42.6318 85.2578 42.9131C85.2461 43.1943 85.1846 43.4932 85.0732 43.8096C84.9795 43.9268 84.8418 44.1172 84.6602 44.3809C84.6133 44.5566 84.4844 44.8086 84.2734 45.1367C84.1035 45.3066 83.8457 45.5703 83.5 45.9277C83.4473 45.9453 83.3799 45.9746 83.2979 46.0156C83.2217 46.0859 83.0869 46.1885 82.8936 46.3232C81.9326 46.833 81.0186 47.123 80.1514 47.1934H78.9912C79.0029 47.1934 78.9795 47.1758 78.9209 47.1406C78.2881 47.123 77.8135 47.0352 77.4971 46.877C77.415 46.8594 77.3037 46.8301 77.1631 46.7891C76.9287 46.6953 76.5771 46.5283 76.1084 46.2881C75.5459 45.9307 75.0186 45.4268 74.5264 44.7764C74.251 44.4131 74.0078 43.9443 73.7969 43.3701C73.5977 42.8369 73.4863 42.3887 73.4629 42.0254C73.4219 41.4043 73.4453 40.7949 73.5332 40.1973C73.5684 40.1211 73.6152 40.0127 73.6738 39.8721C73.709 39.6963 73.7705 39.4414 73.8584 39.1074C73.9873 38.9023 74.1572 38.6035 74.3682 38.2109C74.3975 38.1465 74.4121 38.0703 74.4121 37.9824C74.4414 37.9531 74.5 37.9619 74.5879 38.0088C74.6172 37.9268 74.6172 37.8096 74.5879 37.6572C74.6641 37.6338 74.7725 37.584 74.9131 37.5078C74.96 37.3848 75.0713 37.2354 75.2471 37.0596C75.5986 36.8721 76.1289 36.5967 76.8379 36.2334C77.0195 36.1455 77.251 36.0693 77.5322 36.0049C78.2471 35.8408 78.7334 35.7588 78.9912 35.7588H79.6768C80.21 35.7588 80.667 35.8086 81.0479 35.9082C81.2529 35.9668 81.7041 36.1309 82.4014 36.4004C82.5479 36.4941 82.7793 36.6406 83.0957 36.8398C83.5527 37.1328 83.9688 37.5342 84.3438 38.0439C84.6777 38.501 84.8945 38.9229 84.9941 39.3096C85.041 39.374 85.0996 39.4707 85.1699 39.5996C85.2988 39.9512 85.3721 40.4727 85.3896 41.1641C85.3896 41.1875 85.4014 41.2432 85.4248 41.3311C85.4541 41.4131 85.4688 41.4775 85.4688 41.5244ZM83.5176 41.7529C83.4648 41.0146 83.3213 40.3408 83.0869 39.7314C82.7881 38.9463 82.4365 38.3281 82.0322 37.877C81.458 37.2441 80.8311 36.8721 80.1514 36.7607C79.5068 36.6553 79.0645 36.6201 78.8242 36.6553C78.3555 36.7139 77.957 36.8164 77.6289 36.9629C77.5879 36.9805 77.3213 37.1357 76.8291 37.4287C76.7998 37.4873 76.7471 37.5576 76.6709 37.6396C76.624 37.6514 76.5713 37.6689 76.5127 37.6924C76.3955 37.8447 76.249 38.0498 76.0732 38.3076C76.0498 38.3779 76.0117 38.4775 75.959 38.6064C75.8711 38.7471 75.7773 38.9141 75.6777 39.1074C75.625 39.3242 75.543 39.6494 75.4316 40.083C75.4375 40.2471 75.4346 40.4961 75.4229 40.8301C75.4229 40.8477 75.4111 40.8857 75.3877 40.9443C75.3643 41.0029 75.3555 41.0439 75.3613 41.0674C75.4434 41.4482 75.5605 41.9756 75.7129 42.6494C75.6953 42.6963 75.6836 42.752 75.6777 42.8164C75.7188 42.8984 75.7773 43.0098 75.8535 43.1504C75.8594 43.2266 75.877 43.3262 75.9062 43.4492C76.1523 43.9414 76.2812 44.1934 76.293 44.2051C76.4688 44.5098 76.709 44.7998 77.0137 45.0752C77.0195 45.0811 77.0576 45.2012 77.1279 45.4355C77.1514 45.4414 77.251 45.459 77.4268 45.4883C77.7139 45.752 77.9336 45.9307 78.0859 46.0244C78.5195 46.2822 79.3047 46.3613 80.4414 46.2617C80.5352 46.2324 80.6582 46.1943 80.8105 46.1475C81.0039 46.1064 81.2822 46.0098 81.6455 45.8574C81.7275 45.7812 81.8359 45.6904 81.9707 45.585C82.5566 45.2217 82.9053 44.7734 83.0166 44.2402C83.0752 44.1699 83.1455 44.0703 83.2275 43.9414C83.2393 43.8301 83.2568 43.6982 83.2803 43.5459C83.3154 43.5107 83.3506 43.4551 83.3857 43.3789C83.3975 43.2441 83.4268 42.9512 83.4736 42.5C83.5146 42.1367 83.5293 41.8877 83.5176 41.7529ZM96.3672 46.8154C96.3203 46.8799 96.2441 46.959 96.1387 47.0527C95.875 47.1992 95.6846 47.2725 95.5674 47.2725H94.5127C94.1553 47.2725 93.8887 47.2578 93.7129 47.2285C93.584 47.1816 93.3877 47.1143 93.124 47.0264C92.9014 46.9561 92.5117 46.6045 91.9551 45.9717C91.9082 45.9189 91.6797 45.541 91.2695 44.8379C90.9004 44.1992 90.6104 43.6631 90.3994 43.2295C90.3467 43.0654 90.2529 42.8545 90.1182 42.5967C90.0596 42.5322 89.9131 42.5088 89.6787 42.5264C89.5322 42.5439 89.3828 42.5615 89.2305 42.5791C89.0371 42.5674 88.75 42.5645 88.3691 42.5703C88.3281 42.5703 88.2783 42.6055 88.2197 42.6758C88.2432 42.9043 88.2725 43.6221 88.3076 44.8291C88.3135 45.0635 88.3604 45.3711 88.4482 45.752C88.4482 45.8574 88.4775 46.0127 88.5361 46.2178C88.6592 46.4287 88.8584 46.5811 89.1338 46.6748C89.3564 46.7393 89.5791 46.8037 89.8018 46.8682C89.8076 46.9326 89.8018 47.0088 89.7842 47.0967C89.6143 47.167 89.4414 47.2021 89.2656 47.2021H88.3428C88.3311 47.2021 88.252 47.1875 88.1055 47.1582C87.959 47.1289 87.8535 47.1143 87.7891 47.1143C87.6074 47.1143 87.3232 47.1289 86.9365 47.1582C86.5557 47.1875 86.3652 47.2021 86.3652 47.2021H85.4775C85.3896 47.2021 85.2842 47.1758 85.1611 47.123C85.1611 47.1055 85.1523 47.0703 85.1348 47.0176C85.123 46.9648 85.1172 46.9268 85.1172 46.9033C85.4219 46.8213 85.6094 46.7627 85.6797 46.7275C85.8965 46.6279 86.0723 46.458 86.207 46.2178C86.2656 46.1123 86.3066 45.8428 86.3301 45.4092C86.3301 45.3389 86.3506 45.1572 86.3916 44.8643C86.4268 44.5947 86.4443 44.3896 86.4443 44.249C86.4443 43.4521 86.4502 43.0215 86.4619 42.957C86.4795 42.8926 86.5352 42.7871 86.6289 42.6406C86.5879 42.5996 86.5352 42.5205 86.4707 42.4033C86.4414 42.2979 86.4268 42.1484 86.4268 41.9551V41.0674C86.4268 41.0615 86.418 40.9707 86.4004 40.7949C86.4062 40.8652 86.4326 40.4785 86.4795 39.6348C86.4736 39.623 86.459 39.6025 86.4355 39.5732C86.3711 39.3447 86.374 39.043 86.4443 38.668C86.4678 38.5625 86.4297 38.2109 86.3301 37.6133C86.3242 37.4258 86.2715 37.1797 86.1719 36.875C86.043 36.7168 85.876 36.6172 85.6709 36.5762C85.4951 36.5352 85.3223 36.4971 85.1523 36.4619C85.1523 36.1279 85.1436 36.0576 85.126 36.251C85.1377 36.1572 85.1963 36.1074 85.3018 36.1016C85.542 36.0898 85.9258 36.0635 86.4531 36.0225C86.9395 35.9756 87.1885 35.9521 87.2002 35.9521H88.334C88.5449 35.9521 88.7617 35.9346 88.9844 35.8994C89.207 35.8643 89.3975 35.8467 89.5557 35.8467C89.7549 35.8467 90.0039 35.8643 90.3027 35.8994C90.4902 35.9404 90.7656 35.999 91.1289 36.0752C91.1641 36.0986 91.2227 36.125 91.3047 36.1543C91.8672 36.2422 92.3652 36.5088 92.7988 36.9541C93.0391 37.2061 93.2529 37.6514 93.4404 38.29C93.4463 38.3838 93.4551 38.5215 93.4668 38.7031C93.4785 38.8496 93.4668 39.0693 93.4316 39.3623C93.3555 39.9834 93.209 40.4521 92.9922 40.7686C92.793 41.0615 92.4092 41.4717 91.8408 41.999C91.835 42.1221 91.8584 42.2305 91.9111 42.3242C92.2803 43.0332 92.6494 43.7422 93.0186 44.4512C93.458 45.2188 93.9912 45.8721 94.6182 46.4111C94.6709 46.458 94.8877 46.5342 95.2686 46.6396C95.4971 46.6982 95.6904 46.7129 95.8486 46.6836C96.083 46.6367 96.25 46.6191 96.3496 46.6309C96.3613 46.6719 96.3672 46.7334 96.3672 46.8154ZM91.5508 39.292C91.5508 39.0986 91.5361 38.9697 91.5068 38.9053C91.2139 38.126 90.9648 37.6279 90.7598 37.4111C90.4785 37.1064 90.165 36.9131 89.8193 36.8311C89.5908 36.7783 89.2217 36.7637 88.7119 36.7871C88.6592 36.793 88.5771 36.8252 88.4658 36.8838C88.3721 37.8916 88.3135 38.7061 88.29 39.3271C88.3193 39.374 88.3486 39.4414 88.3779 39.5293C88.3779 39.6113 88.3516 39.9453 88.2988 40.5312C88.2637 40.918 88.2725 41.3047 88.3252 41.6914C88.3428 41.709 88.3662 41.7354 88.3955 41.7705H89.2656C89.3652 41.7939 89.4707 41.8057 89.582 41.8057C89.9277 41.8057 90.2588 41.6973 90.5752 41.4805C90.8975 41.2578 91.0938 41.0762 91.1641 40.9355C91.4219 40.4551 91.5508 39.9072 91.5508 39.292ZM106.299 40.6719C106.334 40.9707 106.305 41.498 106.211 42.2539C106.152 42.4883 106.067 42.8311 105.956 43.2822C105.716 44.2783 105.279 45.0723 104.646 45.6641C104.4 45.8926 104.084 46.1211 103.697 46.3496C103.24 46.625 102.871 46.7744 102.59 46.7979C102.555 46.8213 102.496 46.8477 102.414 46.877C101.547 47.0059 101.128 47.0703 101.157 47.0703H95.4355C95.3887 46.8652 95.4033 46.7363 95.4795 46.6836C95.7256 46.5957 95.8955 46.5518 95.9893 46.5518C96.0244 46.5049 96.0742 46.4404 96.1387 46.3584C96.4141 46.0713 96.5518 45.7549 96.5518 45.4092C96.5518 45.4033 96.5342 45.3301 96.499 45.1895C96.5225 45.1309 96.54 45.0459 96.5518 44.9346C96.5283 44.8877 96.499 44.8145 96.4639 44.7148C96.458 44.6797 96.4697 44.6152 96.499 44.5215C96.5283 44.4219 96.5459 44.3486 96.5518 44.3018C96.5635 44.0791 96.5693 43.7275 96.5693 43.2471V42.2539C96.5635 41.5801 96.5693 40.6016 96.5869 39.3184C96.5869 39.3008 96.5723 39.2627 96.543 39.2041C96.5137 39.1396 96.499 39.0928 96.499 39.0635C96.499 38.9697 96.5137 38.8262 96.543 38.6328C96.5723 38.4336 96.5869 38.2842 96.5869 38.1846C96.5869 38.1611 96.5693 38.1172 96.5342 38.0527C96.499 37.9883 96.4756 37.9355 96.4639 37.8945C96.4697 37.7832 96.4609 37.6133 96.4375 37.3848C96.3379 36.9922 96.1885 36.7432 95.9893 36.6377C95.8252 36.5557 95.5439 36.4854 95.1455 36.4268C95.1396 36.3916 95.1367 36.3154 95.1367 36.1982C95.3887 36.0752 95.6406 36.04 95.8926 36.0928C95.8926 36.0928 95.9131 36.1104 95.9541 36.1455C95.9951 36.1748 96.0303 36.1865 96.0596 36.1807C96.1006 36.1572 96.1504 36.1279 96.209 36.0928C96.4023 36.0869 96.5957 36.0811 96.7891 36.0752C97 36.0811 97.1641 36.1689 97.2812 36.3389C97.2988 36.3389 97.3193 36.3359 97.3428 36.3301C97.3955 36.2422 97.4834 36.1279 97.6064 35.9873C97.7471 36.0107 97.9434 36.04 98.1953 36.0752C98.207 36.0811 98.2305 36.0635 98.2656 36.0225C98.3066 35.9814 98.3418 35.9551 98.3711 35.9434C98.5527 35.8848 98.8252 35.8555 99.1885 35.8555H101.421C102.388 36.0723 103.07 36.2686 103.469 36.4443C104.225 36.7725 104.846 37.2764 105.332 37.9561C105.432 38.085 105.569 38.293 105.745 38.5801C106.003 39.0898 106.188 39.7871 106.299 40.6719ZM105.903 40.6631C105.188 40.6162 104.685 40.5986 104.392 40.6104C104.345 40.5869 104.327 40.4873 104.339 40.3115C104.233 40.0537 104.066 39.6846 103.838 39.2041C103.527 38.5713 103.185 38.0703 102.81 37.7012C102.435 37.3262 101.825 37.0625 100.981 36.9102C100.601 36.8457 100.428 36.8135 100.463 36.8135H99.5576C99.5342 36.8135 99.373 36.8428 99.0742 36.9014C98.7754 36.9541 98.5762 36.9863 98.4766 36.998C98.3945 37.4082 98.3623 37.8535 98.3799 38.334C98.3916 38.5625 98.3975 39.0283 98.3975 39.7314V43.2031C98.3975 43.1973 98.3887 43.2969 98.3711 43.502C98.3594 43.6836 98.3594 43.8184 98.3711 43.9062C98.4004 44.2461 98.415 44.3926 98.415 44.3457C98.3975 44.5801 98.3945 44.7764 98.4062 44.9346C98.4062 44.9697 98.4238 45.0488 98.459 45.1719C98.4883 45.2715 98.5 45.3477 98.4941 45.4004C98.4883 45.4062 98.3916 45.4443 98.2041 45.5146C98.0693 45.5732 97.9873 45.6494 97.958 45.7432C98.0576 45.8311 98.1895 45.8838 98.3535 45.9014C98.4707 45.9072 98.5879 45.9102 98.7051 45.9102C99.8828 46.0449 100.565 46.1123 100.753 46.1123C101.31 46.1123 101.802 46.0273 102.229 45.8574C102.604 45.7051 102.912 45.5059 103.152 45.2598C103.668 44.7383 104.011 44.0908 104.181 43.3174C104.263 42.9424 104.321 42.3184 104.356 41.4453C104.356 41.375 104.304 41.2754 104.198 41.1465C104.187 41.0645 104.204 41.0176 104.251 41.0059C104.339 40.9766 104.521 40.9443 104.796 40.9092C105.036 40.8857 105.379 40.8477 105.824 40.7949C105.877 40.7539 105.903 40.71 105.903 40.6631ZM114.323 44.249C114.323 44.3779 114.253 44.6328 114.112 45.0137C113.978 45.3887 113.878 45.6201 113.813 45.708C113.538 46.042 113.245 46.335 112.935 46.5869C112.765 46.7217 112.542 46.833 112.267 46.9209C111.558 47.1436 110.887 47.2549 110.254 47.2549C110.266 47.2549 110.154 47.249 109.92 47.2373C109.709 47.2197 109.554 47.2139 109.454 47.2197C109.472 47.2725 109.48 47.1699 109.48 46.9121C109.334 46.7715 109.141 46.7012 108.9 46.7012C108.812 46.7012 108.73 46.7393 108.654 46.8154C108.666 46.8271 108.754 46.8682 108.918 46.9385C108.883 47.0439 108.812 47.0967 108.707 47.0967C108.596 47.0967 108.347 47.0498 107.96 46.9561C107.456 46.833 107.09 46.6924 106.861 46.5342C106.809 46.499 106.75 46.2646 106.686 45.8311C106.639 45.4854 106.615 45.0605 106.615 44.5566C106.615 44.0996 106.639 43.7275 106.686 43.4404C106.715 43.4463 106.809 43.4346 106.967 43.4053C107.014 43.4639 107.034 43.5752 107.028 43.7393C107.022 43.9502 107.02 44.0527 107.02 44.0469C107.049 44.1875 107.093 44.3955 107.151 44.6709C107.157 44.7119 107.236 44.8408 107.389 45.0576C107.477 45.1982 107.635 45.3916 107.863 45.6377C108.057 45.79 108.317 45.9072 108.646 45.9893C108.821 46.042 108.997 46.0977 109.173 46.1562C109.396 46.2207 109.58 46.2529 109.727 46.2529C109.785 46.2881 109.829 46.3057 109.858 46.3057C109.882 46.3057 109.917 46.2998 109.964 46.2881C110.011 46.2764 110.046 46.2705 110.069 46.2705C110.099 46.2705 110.21 46.2939 110.403 46.3408C110.597 46.3818 110.705 46.4023 110.729 46.4023C110.752 46.4023 110.808 46.3701 110.896 46.3057C110.989 46.2354 111.06 46.1943 111.106 46.1826C111.271 46.1475 111.511 46.0977 111.827 46.0332C111.991 45.998 112.123 45.8398 112.223 45.5586C112.264 45.4824 112.322 45.3711 112.398 45.2246C112.398 45.1836 112.404 45.1191 112.416 45.0312C112.428 44.9902 112.463 44.917 112.521 44.8115C112.58 44.7061 112.609 44.6387 112.609 44.6094C112.609 44.3926 112.583 44.208 112.53 44.0557C112.501 43.9619 112.381 43.7539 112.17 43.4316C112.105 43.3848 112.012 43.3174 111.889 43.2295C111.379 42.8193 110.887 42.5352 110.412 42.377C110.283 42.3008 110.096 42.1982 109.85 42.0693C109.557 41.9463 109.085 41.6826 108.435 41.2783C108.388 41.2607 108.32 41.2314 108.232 41.1904C108.057 41.0439 107.875 40.8535 107.688 40.6191C107.418 40.2793 107.271 40.0977 107.248 40.0742C107.248 39.9922 107.242 39.8691 107.23 39.7051C107.195 39.6465 107.146 39.5498 107.081 39.415C107.081 39.292 107.072 39.1221 107.055 38.9053C107.09 38.8584 107.107 38.8174 107.107 38.7822C107.043 38.6299 107.011 38.5566 107.011 38.5625C107.011 38.5742 107.072 38.4365 107.195 38.1494C107.213 38.0205 107.254 37.8447 107.318 37.6221C107.342 37.5693 107.497 37.4023 107.784 37.1211C107.919 37.1855 107.98 37.2178 107.969 37.2178C107.986 37.1416 108.021 37.0449 108.074 36.9277C108.613 36.4121 109.108 36.0957 109.56 35.9785C109.929 35.8848 110.424 35.8379 111.045 35.8379C111.074 35.8379 111.37 35.8701 111.933 35.9346C112.495 35.999 112.791 36.0312 112.82 36.0312C112.844 36.0312 112.973 36.0166 113.207 35.9873C113.447 35.9521 113.582 35.9346 113.611 35.9346C113.775 35.9346 113.857 36.0049 113.857 36.1455L113.726 37.5957V38.3604C113.726 38.3721 113.72 38.4746 113.708 38.668C113.696 38.8613 113.69 39.002 113.69 39.0898C113.685 39.0898 113.664 39.1016 113.629 39.125C113.6 39.1484 113.57 39.1602 113.541 39.1602H113.339C113.321 38.9727 113.283 38.7061 113.225 38.3604C113.043 37.6689 112.665 37.2207 112.091 37.0156C111.792 36.9102 111.268 36.8574 110.518 36.8574C110.377 36.8574 110.137 36.916 109.797 37.0332C109.504 37.1328 109.226 37.3877 108.962 37.7979C108.868 37.9443 108.821 38.1025 108.821 38.2725C108.821 38.5479 108.912 38.8789 109.094 39.2656C109.17 39.3359 109.275 39.4326 109.41 39.5557C109.814 39.96 110.415 40.3262 111.212 40.6543C112.472 41.1699 113.348 41.7383 113.84 42.3594C114.021 42.5879 114.145 42.8545 114.209 43.1592C114.285 43.5166 114.323 43.8799 114.323 44.249Z" fill="white"/>
</svg>
