<svg width="25" height="25" viewBox="0 0 25 25" fill="none" xmlns="http://www.w3.org/2000/svg">
<path d="M22.6562 3.125C23.9502 3.125 25 4.17432 25 5.46875C25 6.20605 24.6533 6.89941 24.0625 7.34375L13.4375 15.3125C12.8809 15.7275 12.1191 15.7275 11.5625 15.3125L0.9375 7.34375C0.347315 6.89941 0 6.20605 0 5.46875C0 4.17432 1.04932 3.125 2.34375 3.125H22.6562ZM10.625 16.5625C11.7383 17.3975 13.2617 17.3975 14.375 16.5625L25 8.59375V18.75C25 20.4736 23.5986 21.875 21.875 21.875H3.125C1.39893 21.875 0 20.4736 0 18.75V8.59375L10.625 16.5625Z" fill="#00C675"/>
</svg>
