<svg width="30" height="40" viewBox="0 0 30 40" fill="none" xmlns="http://www.w3.org/2000/svg">
<path d="M17.5 10V0H3.75C1.67891 0 0 1.67891 0 3.75V36.25C0 38.3203 1.67891 40 3.75 40H26.25C28.3211 40 30 38.3211 30 36.25V12.5H20.0703C18.6172 12.5 17.5 11.3828 17.5 10ZM13.75 31.5625C13.75 32.4023 12.7437 32.8109 12.1484 32.2253L9.375 29.375H5.9375C5.42031 29.375 5 28.9531 5 28.4375V24.0625C5 23.5469 5.42031 23.125 5.9375 23.125H9.375L12.1484 20.2734C12.7422 19.6797 13.75 20.1016 13.75 20.9375V31.5625ZM17.5 30.2969C17.157 30.2969 16.8164 30.1535 16.5695 29.8776C16.1081 29.3624 16.1509 28.5737 16.6648 28.1127C17.2031 27.6328 17.5 26.9688 17.5 26.25C17.5 25.5312 17.2034 24.868 16.6648 24.3844C16.1509 23.923 16.1082 23.1344 16.5696 22.6195C17.0323 22.1044 17.8235 22.0653 18.3345 22.5243C19.3906 23.4766 20 24.8281 20 26.25C20 27.6719 19.3933 29.0258 18.3352 29.9758C18.0938 30.1875 17.7969 30.2969 17.5 30.2969ZM25 26.25C25 29.5164 23.3984 32.5867 20.7156 34.4609C20.4984 34.6123 20.2478 34.6855 20.0012 34.6855C19.6069 34.6855 19.2176 34.5 18.9746 34.1509C18.5803 33.5845 18.7183 32.8055 19.2847 32.4102C21.2969 31.0078 22.5 28.7031 22.5 26.25C22.5 23.7969 21.2984 21.4969 19.2859 20.0938C18.7195 19.6983 18.5807 18.9195 18.975 18.3531C19.3693 17.7843 20.1461 17.6452 20.7148 18.043C23.3984 19.9141 25 22.9844 25 26.25ZM20 0V10H30L20 0Z" fill="#00C675"/>
</svg>
