<svg width="22" height="25" viewBox="0 0 22 25" fill="none" xmlns="http://www.w3.org/2000/svg">
<g clip-path="url(#clip0_40_30)">
<path d="M11.0049 6.88477C7.88169 6.88477 5.36249 9.38965 5.36249 12.4951C5.36249 15.6006 7.88169 18.1055 11.0049 18.1055C14.1281 18.1055 16.6473 15.6006 16.6473 12.4951C16.6473 9.38965 14.1281 6.88477 11.0049 6.88477ZM11.0049 16.1426C8.9866 16.1426 7.3366 14.5068 7.3366 12.4951C7.3366 10.4834 8.98169 8.84766 11.0049 8.84766C13.0281 8.84766 14.6732 10.4834 14.6732 12.4951C14.6732 14.5068 13.0232 16.1426 11.0049 16.1426ZM18.1942 6.65527C18.1942 7.38281 17.6049 7.96387 16.8781 7.96387C16.1464 7.96387 15.562 7.37793 15.562 6.65527C15.562 5.93262 16.1513 5.34668 16.8781 5.34668C17.6049 5.34668 18.1942 5.93262 18.1942 6.65527ZM21.9312 7.9834C21.8478 6.23047 21.4451 4.67773 20.1536 3.39844C18.867 2.11914 17.3053 1.71875 15.5424 1.63086C13.7254 1.52832 8.27946 1.52832 6.46249 1.63086C4.70445 1.71387 3.14285 2.11426 1.85133 3.39355C0.559812 4.67285 0.162044 6.22559 0.0736511 7.97852C-0.0294739 9.78516 -0.0294739 15.2002 0.0736511 17.0068C0.157133 18.7598 0.559812 20.3125 1.85133 21.5918C3.14285 22.8711 4.69954 23.2715 6.46249 23.3594C8.27946 23.4619 13.7254 23.4619 15.5424 23.3594C17.3053 23.2764 18.867 22.876 20.1536 21.5918C21.4402 20.3125 21.8428 18.7598 21.9312 17.0068C22.0344 15.2002 22.0344 9.79004 21.9312 7.9834ZM19.5839 18.9453C19.2009 19.9023 18.4594 20.6397 17.492 21.0254C16.0433 21.5967 12.6058 21.4648 11.0049 21.4648C9.40401 21.4648 5.9616 21.5918 4.51785 21.0254C3.55535 20.6445 2.81383 19.9072 2.42588 18.9453C1.85133 17.5049 1.98392 14.0869 1.98392 12.4951C1.98392 10.9033 1.85624 7.48047 2.42588 6.04492C2.80892 5.08789 3.55044 4.35059 4.51785 3.96484C5.96651 3.39355 9.40401 3.52539 11.0049 3.52539C12.6058 3.52539 16.0482 3.39844 17.492 3.96484C18.4545 4.3457 19.196 5.08301 19.5839 6.04492C20.1585 7.48535 20.0259 10.9033 20.0259 12.4951C20.0259 14.0869 20.1585 17.5098 19.5839 18.9453Z" fill="#00C675"/>
</g>
<defs>
<clipPath id="clip0_40_30">
<rect width="22" height="25" fill="white"/>
</clipPath>
</defs>
</svg>
