<svg width="40" height="40" viewBox="0 0 40 40" fill="none" xmlns="http://www.w3.org/2000/svg">
<path d="M39.9297 28.6797C39.9297 32.1313 36.5719 34.9297 32.5 34.9297C28.4281 34.9297 25.0703 32.1312 25.0703 28.75C25.0703 25.2984 28.4281 22.5703 32.5 22.5703C33.3812 22.5703 34.2148 22.7203 35.0008 22.953V11.5703L15 17.5L14.9998 33.7578C14.9297 37.2031 11.6406 40 7.42969 40C3.21875 40 0 37.2031 0 33.75C0 30.2984 3.35781 27.5703 7.42969 27.5703C8.31094 27.5703 9.14453 27.7203 9.92969 27.953V9.88281C9.92969 8.86953 10.7156 7.80234 11.6805 7.49844L36.6102 0.116406C36.8828 0.0516797 37.2891 0 37.5 0C38.8797 0 39.9977 1.12031 40 2.49922L39.9297 28.6797Z" fill="#00C675"/>
</svg>
