<svg width="30" height="40" fill="none" xmlns="http://www.w3.org/2000/svg"><path d="M17.5 10V0H3.75A3.75 3.75 0 0 0 0 3.75v32.5A3.75 3.75 0 0 0 3.75 40h22.5A3.75 3.75 0 0 0 30 36.25V12.5h-9.93c-1.453 0-2.57-1.117-2.57-2.5Zm-3.75 21.563c0 .84-1.006 1.248-1.602.662l-2.773-2.85H5.937A.94.94 0 0 1 5 28.437v-4.375a.94.94 0 0 1 .938-.937h3.437l2.773-2.852c.594-.593 1.602-.171 1.602.665v10.625Zm3.75-1.266c-.343 0-.684-.143-.93-.42a1.25 1.25 0 0 1 .095-1.764 2.47 2.47 0 0 0 .835-1.863 2.48 2.48 0 0 0-.835-1.866 1.25 1.25 0 1 1 1.67-1.86A5.02 5.02 0 0 1 20 26.25a5.009 5.009 0 0 1-1.665 3.726 1.267 1.267 0 0 1-.835.32ZM25 26.25c0 3.266-1.602 6.337-4.284 8.21a1.248 1.248 0 0 1-1.741-.31 1.25 1.25 0 0 1 .31-1.74 7.508 7.508 0 0 0 .001-12.316 1.251 1.251 0 0 1-.311-1.74 1.244 1.244 0 0 1 1.74-.311A10.015 10.015 0 0 1 25 26.25ZM20 0v10h10L20 0Z" fill="#00C675"/></svg>