<svg width="1440" height="317" fill="none" xmlns="http://www.w3.org/2000/svg"><path d="M.315 260.007c7.638-5.964 23.52-17.591 30.068-18.409 3.064-.383 8.536-.48 14.485-.584 9.941-.175 21.214-.374 24.798-1.973 4.583-2.044 14.458-3.918 18.823-4.599 7.092-3.407 22.587-10.323 27.825-10.732 2.311-.181 5.133-1.763 8.61-3.713 6.368-3.572 14.933-8.375 26.58-8.045 11.069.315 22.447 4.686 31.092 8.008 5.417 2.081 9.761 3.75 12.283 3.75 3.177 0 12.329-2.769 21.75-5.619 9.992-3.024 20.288-6.139 24.079-6.139 3.521 0 9.658-3.036 16.179-6.262 7.123-3.523 14.703-7.273 19.83-7.54 3.882-.202 6.74-3.278 10.041-6.83 5.052-5.437 11.139-11.988 23.513-11.06 10.881.815 19.215 2.499 25.373 3.742 5.421 1.095 9.155 1.849 11.454 1.371 1.545-.322 3.493-.947 5.694-1.652 4.798-1.539 10.793-3.461 16.403-3.461 3.692 0 11.382-3.433 19.613-7.108 10.013-4.47 20.826-9.298 26.216-8.737 4.846.505 11.484-3.221 18.44-7.127 7.144-4.01 14.624-8.208 20.843-8.208 2.628 0 5.856.234 9.547.502 13.553.983 33.354 2.419 52.65-5.615 10.79-4.493 26.797-14.417 42.254-24 19.713-12.221 38.532-23.888 44.495-23.028 8.511 1.227 43.145 20.125 59.398 29.421 4.231-.502 14.414-.472 21.296 3.662 3.766 2.261 11.023 7.815 18.272 13.363 9.312 7.126 18.611 14.243 20.482 14.36l.147.009c3.412.212 11.339.704 23.145 6.849 5.858 3.049 10.988 6.848 15.107 9.899 4.305 3.189 7.505 5.56 9.279 5.401 1.22-.108 4.338-1.48 8.279-3.212 7.272-3.198 17.345-7.627 23.454-7.627 9.421 0 20.33-1.239 31.238-8.052 1.496-.934 3.01-1.903 4.523-2.872 9.518-6.094 18.965-12.142 23.244-9.06 4.958 3.571 13.883 8.665 17.354 8.665l.813-.003c4.784-.022 20.168-.095 22.491 3.27 1.197 1.734 4.823 3.238 9.09 4.713 11.569.834 23.374 2.388 35.493 4.014.786-.044 1.529-.1 2.225-.166l5.662-6.239c.239-.262.635-.442 1.071-.488.435-.046.86.048 1.148.254l4.728 3.4 8.094-8.919c.236-.265.632-.447 1.07-.494.437-.046.863.051 1.149.26l9.29 6.667c19.194-4.588 37.025-10.967 54.185-17.108l.01-.002c23.3-8.335 45.37-16.23 67.94-18.61 21.23-2.222 51.22 3.597 82.39 9.646 33.76 6.552 68.43 16.575 95.34 13.739 21.47-2.285 49.68-4.139 71.33-13.996 26.63-3.754 57.91-20.438 76.12-22.358 2.17-.228-1.95.346 0 0 3.95-.7-6.17-.199 0 0l11.6 140.292v61.376H.315v-5.738c-.12-1.14.21-2.279 0-4.271-.241-2.287 0-4.126 0-5.742V284.98s.26-4.71 0-7.167v-6.876s-.709-10.376 0-10.93Z" fill="#B7E1ED"/><path d="M.443 278.546h41.481l19.491 9.888h23.99l23.488-9.888 22.99-5.859 43.48-6.593 37.982 6.593 55.975-3.296 51.476-3.297h29.986l34.984-8.423 35.484-4.761 24.988-12.451 28.987-4.761 21.99-10.621h19.991l25.988-9.888 13.348-5.288a29.005 29.005 0 0 1 10.674-2.037h12.699c3.153 0 6.287.498 9.285 1.474l13.589 4.426a28.989 28.989 0 0 0 8.976 1.425h7.87c2.326 0 4.63-.451 6.784-1.328l10.38-4.226a23.998 23.998 0 0 1 9.045-1.771h8.046c3.475 0 6.926.585 10.208 1.73l12.4 4.327c2.362.825 4.924.889 7.325.186l17.579-5.153a26.97 26.97 0 0 1 7.591-1.09h24.689c.93 0 1.842.26 2.633.751l3.921 2.43c.853.53 1.915.596 2.828.178l20.347-9.318a10.995 10.995 0 0 1 4.578-.999h26.089l47.478 2.93 26.488-8.057 37.461-13.726a58.982 58.982 0 0 1 23.761-3.497l62.221 3.672 5.353-.186c5.68-3.218 12.63-7.317 19.36-11.286 11.79-6.953 22.89-13.502 25.26-14.19.42-.123.95-.285 1.57-.479 6.9-2.147 25.96-8.083 53.21-4.496 5.35.705 10.23 1.34 14.67 1.899l13.02-7.152h34.48l16.23 4.05c2.55-.298 5.21-2.032 6.52-2.335.32-.074.86-.21 1.59-.392 5.85-1.461 23.5-5.873 31.89-4.821 6.05.759 12.4.109 16.95-.356 2.55-.261 4.53-.464 5.58-.329.56.072 1.77.255 3.38.5 6.79 1.032 20.7 3.146 22.84 2.482.77-.241 2.22-1.044 4.18-2.127 4.72-2.611 12.38-6.848 20.58-8.742 3.62.282 11.58.665 14.38-.065.4-.105.86-.231 1.36-.37 3.92-1.078 10.69-2.942 15.62-1.662 5.57 1.446 16.25 3.288 20.42 2.431 3.16-.651 11.66-.26 16.13.056l.92-.02a63.96 63.96 0 0 1 5.08-1.305l77.72-23.543V317H.443v-38.454Z" fill="#E5F9FF"/><path d="M1428.8 154.099c-3.21.107-48.28-11.813-71.99-19.443 1.49-.417 2.99-1.061 4.98-1.357 1.84-.275 26.91-9.051 32.29-9.656 2.55-.286 42.05-14.146 45.79-13.727 1.96.219-19.01 18.083-18.54 19.176 2.82 6.593 8.77 24.964 7.47 25.007Zm-104.6.665c-3.2.107-17.07-11.506-40.78-19.137 1.63-.925 3.38-1.294 5.63-1.293 2.7.144 7.32.606 12.69.001 2.55-.287 7.33-2.809 11.07-2.39 1.95.219 4.49 4.431 4.95 5.524 2.82 6.593 7.74 17.252 6.44 17.295Zm-84.35.111c-.49-3.507-2.01-7.887-2.95-12.698 1.46.069 20.02 2.993 26.24 2.993 0 0 1.2.076-3.97 13.533-5.16 13.457-12.1 13.348-15.09 13.348-2.34-4.9-4.23-9.451-4.23-17.176ZM996.3 202.1c-3.204.106-56.581-15.191-80.286-22.821 4.864-2.756 52.903 1.249 76.215 2.943l4.574-.201c2.82 6.594.798 20.035-.503 20.079Zm-230.096-1.068c-1.123-.049-16.227 6.943-23.638 10.445 10.977 6.126 12.418 11.527 18.499 21.582 6.88-13.836 6.544-31.966 5.139-32.027Zm-206.67 7.84c-1.124-.048-34.93 12.851-42.341 16.353 13.658 7.146 16.323 11.993 21.503 23.158 20.838-27.287 22.243-39.45 20.838-39.511Zm-138.081 43.86c-1.123-.048-61.427 7.65-70.639 13.499 13.658 7.145 16.323 11.992 21.503 23.158 20.838-27.288 50.541-36.596 49.136-36.657Z" fill="#CCE6EE"/></svg>