<svg width="22" height="25" fill="none" xmlns="http://www.w3.org/2000/svg"><g clip-path="url(#a)"><path d="M11.005 6.885c-3.123 0-5.643 2.505-5.643 5.61 0 3.106 2.52 5.61 5.643 5.61 3.123 0 5.642-2.504 5.642-5.61 0-3.105-2.519-5.61-5.642-5.61Zm0 9.258c-2.018 0-3.668-1.636-3.668-3.648 0-2.012 1.645-3.647 3.668-3.647s3.668 1.635 3.668 3.647c0 2.012-1.65 3.648-3.668 3.648Zm7.19-9.488a1.31 1.31 0 0 1-1.317 1.309 1.31 1.31 0 0 1-1.316-1.309c0-.722.59-1.308 1.316-1.308.727 0 1.316.586 1.316 1.308Zm3.736 1.328c-.083-1.753-.486-3.305-1.777-4.585-1.287-1.279-2.849-1.68-4.612-1.767-1.817-.103-7.263-.103-9.08 0-1.758.083-3.32.483-4.61 1.763C.56 4.673.161 6.226.073 7.979c-.103 1.806-.103 7.221 0 9.028.083 1.753.486 3.305 1.777 4.585 1.292 1.28 2.849 1.68 4.611 1.767 1.817.103 7.263.103 9.08 0 1.763-.083 3.325-.483 4.612-1.767 1.286-1.28 1.689-2.832 1.777-4.585.103-1.807.103-7.217 0-9.024Zm-2.347 10.962a3.703 3.703 0 0 1-2.092 2.08c-1.449.572-4.886.44-6.487.44s-5.043.127-6.487-.44a3.704 3.704 0 0 1-2.092-2.08c-.575-1.44-.442-4.858-.442-6.45 0-1.592-.128-5.015.442-6.45a3.703 3.703 0 0 1 2.092-2.08c1.449-.571 4.886-.44 6.487-.44 1.6 0 5.043-.127 6.487.44a3.703 3.703 0 0 1 2.092 2.08c.575 1.44.442 4.858.442 6.45 0 1.592.133 5.015-.442 6.45Z" fill="#00C675"/></g><defs><clipPath id="a"><path fill="#fff" d="M0 0h22v25H0z"/></clipPath></defs></svg>