<svg width="166" height="48" fill="none" xmlns="http://www.w3.org/2000/svg"><path d="M23.41 14.233c.077.85.019 2.344-.177 4.483a1315.6 1315.6 0 0 1-.527 2.915c-.498 2.822-1.396 5.073-2.695 6.753-.498.644-1.148 1.289-1.948 1.933-.948.772-1.705 1.192-2.271 1.26a2.329 2.329 0 0 1-.38.25c-1.788.35-2.647.526-2.579.526H1.056c-.098-.585-.064-.947.102-1.084.498-.253.845-.38 1.04-.38a7.92 7.92 0 0 1 .308-.542c.566-.81.85-1.714.85-2.71 0-.02-.035-.22-.103-.6.039-.177.073-.42.102-.733a4.259 4.259 0 0 1-.19-.63c-.01-.098.015-.274.073-.527a4.82 4.82 0 0 0 .117-.63c.03-.635.044-1.636.044-3.003v-2.798c-.01-1.924 0-4.697.03-8.32 0-.06-.034-.176-.103-.352a1.406 1.406 0 0 1-.088-.366c0-.274.03-.689.088-1.245.069-.557.103-.972.103-1.245 0-.069-.04-.196-.117-.381a2.27 2.27 0 0 1-.147-.44c.02-.322.005-.805-.044-1.45-.205-1.104-.517-1.807-.937-2.11-.323-.244-.894-.444-1.714-.6a4.61 4.61 0 0 1-.03-.66c.518-.35 1.036-.448 1.553-.292l.132.132c.088.088.161.127.22.117.078-.059.18-.142.307-.25.118.02.288.016.513-.014.273-.039.459-.058.557-.058.498 0 .879.254 1.142.761a.63.63 0 0 0 .117-.014c.108-.254.289-.581.542-.982.293.069.699.157 1.216.264.02 0 .069-.054.147-.161a.593.593 0 0 1 .22-.205c.36-.166.917-.25 1.67-.25h4.599c1.992.596 3.398 1.143 4.219 1.641 1.552.938 2.827 2.368 3.823 4.292.205.371.493.962.864 1.773.528 1.445.904 3.423 1.128 5.932Zm-.806-.029c-1.475-.137-2.51-.185-3.106-.146a.462.462 0 0 1-.19-.41c.029-.147.053-.298.073-.455-.225-.713-.567-1.753-1.026-3.12-.644-1.797-1.352-3.222-2.124-4.277-.771-1.065-2.026-1.807-3.764-2.227-.782-.185-1.138-.278-1.07-.278h-1.86c-.049 0-.371.078-.967.234-.634.166-1.054.264-1.26.293a22.246 22.246 0 0 0-.19 3.78c.02.654.03-.41.03-3.194v9.83c0 6.708-.02 9.76-.06 9.155.06.957.094 1.367.103 1.23a12.44 12.44 0 0 0-.029 1.67c.01.107.049.332.117.674.059.293.083.513.073.66-.019.009-.22.121-.6.336-.283.156-.454.366-.513.63.215.264.488.415.82.454.245.01.484.024.718.044 2.432.371 3.838.557 4.219.557 1.143 0 2.158-.245 3.047-.733a5.612 5.612 0 0 0 1.904-1.67c1.055-1.484 1.758-3.325 2.11-5.522.166-1.065.283-2.827.351-5.288.01-.215-.098-.503-.322-.865-.02-.224.014-.356.102-.395.196-.088.572-.18 1.128-.278.498-.069 1.206-.171 2.124-.308a.554.554 0 0 0 .162-.38Zm21.811 1.67c0 .557-.015.981-.044 1.274-.098.225-.2.572-.308 1.04-.02.47-.122.967-.307 1.495a18.13 18.13 0 0 0-.689.952c-.078.293-.293.713-.644 1.26-.283.283-.713.722-1.29 1.318-.087.03-.2.078-.336.146a7.02 7.02 0 0 1-.674.513c-1.601.85-3.125 1.333-4.57 1.45h-1.934c.02 0-.02-.029-.117-.088-1.055-.029-1.846-.175-2.373-.44a8.36 8.36 0 0 1-.557-.146c-.39-.156-.976-.434-1.758-.834-.937-.596-1.816-1.436-2.636-2.52-.46-.605-.864-1.387-1.216-2.344-.332-.889-.518-1.636-.557-2.241a14.435 14.435 0 0 1 .117-3.047c.06-.127.137-.308.235-.542.058-.293.161-.718.307-1.274.215-.342.498-.84.85-1.494a.915.915 0 0 0 .073-.381c.05-.05.147-.034.293.044.05-.137.05-.332 0-.586a3.3 3.3 0 0 0 .542-.25c.078-.204.264-.453.557-.746.586-.313 1.47-.772 2.651-1.377a5.532 5.532 0 0 1 1.157-.381c1.192-.274 2.003-.41 2.432-.41h1.143c.888 0 1.65.083 2.285.249.342.097 1.094.37 2.256.82.244.156.63.4 1.157.732.762.489 1.455 1.158 2.08 2.007.557.762.918 1.465 1.084 2.11.078.107.176.268.293.483.215.586.337 1.455.366 2.607 0 .04.02.132.059.279.049.136.073.244.073.322Zm-3.252.38c-.088-1.23-.327-2.353-.718-3.368-.498-1.309-1.084-2.34-1.758-3.091-.956-1.055-2.002-1.675-3.134-1.86-1.075-.176-1.812-.235-2.212-.176-.781.097-1.446.268-1.992.512-.069.03-.513.289-1.333.777a1.626 1.626 0 0 1-.264.351c-.078.02-.166.05-.264.088-.195.254-.44.596-.732 1.026-.04.117-.103.283-.19.498a11.62 11.62 0 0 0-.47.835c-.087.361-.224.903-.41 1.626.01.273.005.688-.014 1.245a.71.71 0 0 1-.059.19c-.039.098-.053.166-.044.205.137.635.332 1.514.586 2.637a1.07 1.07 0 0 0-.058.278c.068.137.166.323.293.557.01.127.039.293.087.498.41.82.625 1.24.645 1.26a6.03 6.03 0 0 0 1.201 1.45c.01.01.073.21.19.6.04.01.206.04.499.088.478.44.844.738 1.098.894.723.43 2.032.562 3.926.396a43.5 43.5 0 0 1 .615-.19c.323-.07.786-.23 1.392-.484.137-.127.317-.279.542-.454.977-.606 1.558-1.353 1.743-2.242a4.94 4.94 0 0 0 .352-.498c.02-.185.048-.405.088-.659a.98.98 0 0 0 .175-.278c.02-.225.069-.713.147-1.465.068-.605.093-1.02.073-1.245ZM65.816 6.66c.02.166-.16.322-.542.469a37.64 37.64 0 0 0-.805.308c-.4.292-.689.78-.864 1.464-.206.41-.44 1.055-.704 1.934-.039.293-.19.723-.454 1.289-.263.557-.395.899-.395 1.025 0 .118-.015.303-.044.557-.703 2.1-1.724 5.274-3.062 9.521-.127.45-.249.899-.366 1.348-.195.527-.454.791-.776.791a.884.884 0 0 1-.396-.102c0-.04.025-.137.073-.293a1.07 1.07 0 0 0 .059-.396c-.127-.068-.259-.268-.395-.6 0-.118-.01-.284-.03-.498a21.692 21.692 0 0 1-.527-1.421c-.02-.225-.04-.454-.059-.689-.049-.342-.17-.615-.366-.82a2.927 2.927 0 0 0-.058-.278c.058-.147.087-.288.087-.425 0-.254-.097-.518-.293-.791l-.512-.63c.088-.127.2-.298.337-.513a3.306 3.306 0 0 1-.41-.586c0-.156-.015-.41-.044-.762a16.09 16.09 0 0 1-.455-.82c-.039-.088-.043-.234-.014-.44.049-.282.073-.473.073-.57-.293-.196-.513-.113-.66.248-.136.508-.35 1.265-.644 2.271-.342.771-.732 1.919-1.172 3.442-.117.274-.268.699-.454 1.275a32.61 32.61 0 0 1-.366 1.567c-.185.635-.395 1.152-.63 1.553-.234.117-.488.117-.761 0-.157-.342-.284-.786-.381-1.333-.117-.654-.205-1.08-.264-1.274-.127-.391-.308-.704-.542-.938.098-.586.078-1.03-.059-1.333a8.43 8.43 0 0 1-.615-.674c-.01-.127-.02-.288-.03-.483a.209.209 0 0 0-.028-.117 18.144 18.144 0 0 1-.528-1.26 1.69 1.69 0 0 0-.03-.528l.206-.205c.225.186.557.386.996.6.03-.214-.054-.438-.249-.673-.234-.273-.361-.478-.38-.615-1.046-.527-1.568-1.099-1.568-1.714 0-.146.03-.288.088-.425a8.244 8.244 0 0 1-.498-.908c-.069-.352-.2-.86-.396-1.523-.127-.137-.278-.362-.454-.674.02-.196.03-.508.03-.938a38.13 38.13 0 0 1-.528-.908 53.28 53.28 0 0 1-.366-.776c-.166-.313-.357-.542-.572-.689-.166-.127-.59-.249-1.274-.366.02 0-.039-.068-.176-.205.04-.078.103-.166.19-.264.391-.049 1.075-.014 2.051.103.147.02.381.005.704-.044.361-.069.551-.103.571-.103h2.578c.059 0 .147-.039.264-.117.127-.078.22-.117.278-.117a.473.473 0 0 1 .059.205c0 .166-.21.356-.63.571-.42.205-.635.464-.645.777-.02.468.127.996.44 1.582.02.254.068.65.146 1.186.088.332.435 1.226 1.04 2.68.01.206.03.49.059.85l.19.337c-.01.274.083.601.279.982.244.478.376.771.395.879.137.634.425 1.553.864 2.754.205 0 .342-.103.41-.308a36.07 36.07 0 0 0 .894-3.281c.078-.078.171-.22.278-.425.059-.352.19-.86.396-1.524.293-.664.44-1.142.44-1.435 0-.166-.025-.327-.074-.483-.322-.918-.796-2.29-1.42-4.117-.138-.136-.416-.307-.836-.512-.37-.176-.59-.327-.659-.454.215-.03.547-.093.996-.19 0 .175.025.282.073.321.352.079.81.079 1.377 0l1.553-.205c.117-.01.498.005 1.143.044.468.02.854-.034 1.157-.16.039.116.058.21.058.277 0 .147-.146.254-.439.323-.39.088-.674.22-.85.395-.107.108-.16.293-.16.557 0 .176.048.44.146.79.127.46.2.758.22.894-.04.235-.05.572-.03 1.011.176.186.381.464.615.835.05.332.127.781.235 1.348.127.469.259.932.395 1.391.166.577.23 1.011.19 1.304.147.127.299.298.455.513.01.137.083.605.22 1.406.107.645.16 1.128.16 1.45l.206.235c.117-.059.259-.166.425-.323.185-.4.468-1.044.85-1.933a79.38 79.38 0 0 1 .468-2.608c.02-.078.2-.302.542-.674.02-.751.215-1.513.586-2.285.01-.166.054-.42.132-.761.088-.079.185-.215.293-.41.058-.362.195-.923.41-1.685.195-.479.146-.86-.147-1.143-.117-.097-.332-.185-.644-.263-.371-.098-.63-.181-.776-.25.166-.253.576-.346 1.23-.278.01 0 .063.02.161.059.098.039.18.059.25.059.058 0 .18-.03.365-.088.186-.059.371-.098.557-.118.107-.01.278.01.513.06.234.038.405.058.512.058a8.95 8.95 0 0 0 1.538-.147Zm-18.09 9.522-.293.205-.074-.117.293-.206.074.118Zm32.24 2.285-.131.16-.088-.087.073-.308c.166.157.215.235.147.235Zm5.435-11.192c-.185.03-.454.079-.805.147-.371.107-.664.342-.88.703-.302.537-.487 1.064-.556 1.582-.127.898-.19 1.63-.19 2.197 0 .04.02.464.058 1.275.04.8.059 1.225.059 1.274v2.33c0 .028.015.126.044.292.039.166.054.293.044.381a87.056 87.056 0 0 0-.088 1.992c0 .078.02.24.058.484.04.234.06.37.06.41v4.497c0 .059.004.093.014.102.02 0 .029.005.029.015-.684.117-.991.176-.923.176-.41 0-.664-.044-.761-.132-.674-.625-1.67-1.719-2.989-3.281a58.92 58.92 0 0 0-1.055-1.348c-.41-.4-.966-.986-1.67-1.758a22.186 22.186 0 0 0-.878-1.303 225.308 225.308 0 0 1-3.736-4.703c-.215-.166-.508-.43-.879-.79a1.47 1.47 0 0 0-.088-.294 15.812 15.812 0 0 0-.585-.835c-.206.098-.308.25-.308.455 0-.01.068.488.205 1.494a.8.8 0 0 1-.03.278 1.224 1.224 0 0 0-.043.234 56.433 56.433 0 0 0 .102 3.003v2.051l.015 1.494c.02.938.03 1.43.03 1.48 0 2.04.727 3.115 2.182 3.222.03 0 .063.044.102.132.05.078.084.127.103.147a.869.869 0 0 1-.073.44h-5.113c-.039 0-.22.024-.541.072a5.561 5.561 0 0 1-.543.088h-.234c-.088-.088-.132-.141-.132-.16 0-.343.108-.572.322-.69a10.91 10.91 0 0 0 1.114-.439c.478-.263.766-.683.864-1.26.254-1.415.308-2.28.161-2.592-.068-.137-.078-.254-.03-.352l.118-.146-.088-.132a3.924 3.924 0 0 1 .015-.557c.02-.273.03-.469.03-.586 0-.137-.03-.37-.089-.703a5.626 5.626 0 0 1-.073-.703c0 .147.02-.156.059-.908a4.87 4.87 0 0 0-.132-.293l.073-.073c.04-.059.064-.166.073-.323.02-.029.02-.063 0-.102-.136-1.104-.205-1.846-.205-2.227v-2.021l-.058-.864a26.83 26.83 0 0 1-.044-1.246c0-.029.014-.092.044-.19a.498.498 0 0 0 .043-.25c-.742-.78-1.674-1.132-2.797-1.054l-.074-.073v-.483c.108-.127.371-.19.791-.19.05 0 .44.019 1.172.058.743.039 1.138.058 1.187.058.039 0 .4-.02 1.084-.058.693-.04 1.064-.059 1.113-.059.235 0 .371.01.41.03.137.048.42.366.85.952.81 1.142 2.031 2.841 3.662 5.097.332.42.83 1.045 1.494 1.875-.117.86.005 1.29.366 1.29.04 0 .117-.03.235-.089a.681.681 0 0 1 .249-.088c.127 0 .298.181.512.543.108.185.21.366.308.541.713.577 1.157 1.016 1.333 1.319.04.166.108.41.205.732.078.108.142.161.19.161.05 0 .098-.02.147-.058.049-.04.078-.059.088-.059.264.284.62.699 1.07 1.245.165-.078.248-.151.248-.22a.931.931 0 0 0-.058-.248.931.931 0 0 1-.059-.25v-1.567a.992.992 0 0 0-.03-.205 3.778 3.778 0 0 1-.014-.366c.04-.186.069-.45.088-.791a47.319 47.319 0 0 1-.19-1.245c-.02-.078-.01-.225.029-.44a4.21 4.21 0 0 0 .058-.366 1.23 1.23 0 0 0-.043-.234 1.411 1.411 0 0 1-.044-.264 4.334 4.334 0 0 1 0-.718c.02-.38.029-.635.029-.761a.778.778 0 0 0-.073-.25 1.933 1.933 0 0 1-.074-.263l.059-.396c.01-.078-.01-.23-.059-.454a3.261 3.261 0 0 1-.058-.512c0-.04.02-.127.058-.264a.77.77 0 0 0 .044-.293c-.058-.4-.16-.986-.307-1.758-.137-.508-.694-.845-1.67-1.01.02-.167 0-.342-.059-.528.108-.088.454-.132 1.04-.132l2.666.103c-.058 0 .381-.03 1.319-.088.556-.04.99-.005 1.303.102v.542Zm13.594 3.208c.088.41.034 1.319-.161 2.725-.068.488-.352 1.074-.85 1.758-.498.674-1 1.177-1.508 1.509-.46.312-1.104.537-1.934.673a7.173 7.173 0 0 1-.908.293c-.772.069-1.748.103-2.93.103-.068 0-.151.058-.249.176.04.37.083 1.553.132 3.545.02.39.098.898.234 1.523 0 .176.05.435.147.776.195.352.522.601.981.747l1.084.323c.01.107.005.234-.014.38a2.242 2.242 0 0 1-.865.176h-1.508c-.02 0-.152-.024-.396-.073a2.845 2.845 0 0 0-.513-.073c-.293 0-.756.024-1.391.073l-.923.073h-1.45c-.147 0-.323-.048-.528-.146a.807.807 0 0 0-.044-.161.998.998 0 0 1-.029-.19c.508-.137.816-.235.923-.294.352-.166.64-.444.864-.835.098-.175.161-.62.19-1.333.01-.117.045-.42.103-.908.059-.44.088-.776.088-1.01v-1.817a61.9 61.9 0 0 0-.044-1.348c.01-.507.127-.942.352-1.303-.079-.069-.166-.196-.264-.381a11.191 11.191 0 0 1-.117-1.64c0-.01.039-.176.117-.499.068-.263.073-.473.015-.63-.157-.42-.176-.947-.059-1.582.04-.185-.024-.766-.19-1.743 0-.312-.083-.723-.25-1.23a1.429 1.429 0 0 0-.82-.498l-.85-.176c0-.557-.014-.674-.043-.352.02-.156.117-.239.293-.249a71.77 71.77 0 0 0 1.875-.132 81.855 81.855 0 0 1 1.23-.102h1.846c.351 0 .708-.03 1.07-.088.37-.068.683-.103.937-.103.322 0 .732.03 1.23.088.303.069.752.166 1.348.293.058.04.151.083.278.132.928.137 1.743.576 2.446 1.318.508.528.86 1.265 1.055 2.212Zm-3.105 1.641c0-.313-.015-.522-.044-.63-.489-1.28-.899-2.104-1.23-2.475-.46-.498-.972-.811-1.539-.938-.37-.088-.976-.112-1.816-.073-.088 0-.22.054-.396.161a74.572 74.572 0 0 0-.293 4.014c.05.078.093.19.132.337 0 .136-.044.693-.132 1.67a8.896 8.896 0 0 0 .059 1.904l.117.117h1.42c.157.049.328.073.514.073.566 0 1.108-.18 1.626-.542.517-.361.84-.659.966-.893.41-.801.616-1.71.616-2.725Zm24.433 3.75c0 .557-.014.981-.044 1.274-.097.225-.2.572-.307 1.04-.02.47-.122.967-.308 1.495-.156.195-.386.512-.688.952-.079.293-.293.713-.645 1.26-.283.283-.713.722-1.289 1.318-.088.03-.2.078-.337.146a6.934 6.934 0 0 1-.674.513c-1.601.85-3.125 1.333-4.57 1.45h-1.934c.02 0-.019-.029-.117-.088-1.055-.029-1.846-.175-2.373-.44a8.423 8.423 0 0 1-.557-.146c-.39-.156-.976-.434-1.757-.834-.938-.596-1.817-1.436-2.637-2.52-.459-.605-.864-1.387-1.216-2.344-.332-.889-.517-1.636-.557-2.241a14.364 14.364 0 0 1 .118-3.047c.058-.127.136-.308.234-.542.059-.293.161-.718.308-1.274.215-.342.498-.84.849-1.494a.911.911 0 0 0 .074-.381c.048-.05.146-.034.292.044.049-.137.049-.332 0-.586.127-.04.308-.122.542-.25.079-.204.264-.453.557-.746.586-.313 1.47-.772 2.651-1.377a5.54 5.54 0 0 1 1.158-.381c1.191-.274 2.002-.41 2.431-.41h1.143c.889 0 1.65.083 2.285.249.342.097 1.094.37 2.256.82.244.156.63.4 1.157.732.762.489 1.455 1.158 2.08 2.007.557.762.918 1.465 1.084 2.11.078.107.176.268.293.483.215.586.337 1.455.366 2.607 0 .04.02.132.059.279.049.136.073.244.073.322Zm-3.252.38c-.088-1.23-.327-2.353-.717-3.368-.499-1.309-1.084-2.34-1.758-3.091-.957-1.055-2.002-1.675-3.135-1.86-1.074-.176-1.812-.235-2.212-.176-.781.097-1.445.268-1.992.512-.069.03-.513.289-1.333.777a1.634 1.634 0 0 1-.264.351c-.078.02-.166.05-.264.088-.195.254-.439.596-.732 1.026a8.418 8.418 0 0 1-.19.498c-.147.234-.303.512-.469.835-.088.361-.225.903-.41 1.626.009.273.005.688-.015 1.245 0 .03-.019.093-.059.19-.039.098-.053.166-.043.205.136.635.332 1.514.585 2.637-.029.078-.048.17-.058.278.068.137.166.323.293.557.01.127.039.293.088.498.41.82.625 1.24.644 1.26.293.508.694.991 1.201 1.45.01.01.074.21.191.6.039.01.205.04.498.088.478.44.845.738 1.099.894.722.43 2.031.562 3.925.396.157-.05.362-.113.616-.19.322-.07.786-.23 1.391-.484.137-.127.318-.279.542-.454.977-.606 1.558-1.353 1.743-2.242a4.94 4.94 0 0 0 .352-.498c.019-.185.049-.405.088-.659a.99.99 0 0 0 .176-.278c.019-.225.068-.713.146-1.465.068-.605.093-1.02.073-1.245Zm21.973-9.55c0 .361-.064.552-.19.571-.186.02-.459.079-.821.176-.156-.01-.371.044-.644.161-.332.303-.528.738-.586 1.304-.03.049-.064.127-.103.234-.049.547-.063.89-.044 1.026.137.889.205 1.338.205 1.347v1.128a.95.95 0 0 1-.058.235c-.03.107-.049.18-.059.22-.01.068-.005.2.015.395.088.781.132 1.802.132 3.062a.42.42 0 0 1-.059.102.254.254 0 0 0-.044.117c0 .948.01 1.323.029 1.128a36.703 36.703 0 0 1-.278 2.3c-.059.303-.229.767-.513 1.392-.273.615-.507 1.054-.703 1.318-.234.303-.664.679-1.289 1.128a83.25 83.25 0 0 1-1.509 1.07c-.146-.108-.566-.07-1.259.116a9.727 9.727 0 0 1-.645.323c-.049.02-.127.005-.234-.044a1.332 1.332 0 0 0-.176-.074h-1.084c.137 0-.112-.068-.747-.205a8.926 8.926 0 0 1-.967-.117 11.27 11.27 0 0 0-1.172-.512c-.156-.01-.39-.035-.703-.074-.107-.029-.298-.122-.571-.278-1.758-1.016-2.676-2.754-2.754-5.215l-.132-4.629a225.56 225.56 0 0 0-.41-5.713c-.059-.556-.269-.947-.63-1.172-.107-.078-.571-.22-1.392-.424a.369.369 0 0 1-.044-.162c0-.185.166-.253.499-.205.761.098 1.635.147 2.622.147h1.42c.03 0 .166-.02.411-.059.244-.039.429-.058.556-.058.469.029 1.172.01 2.11-.059.078.098.117.186.117.264 0 .156-.303.283-.908.38a5.59 5.59 0 0 1-.264.191c-.068.03-.166.083-.293.161-.176.137-.273.259-.293.366-.176.89-.386 1.851-.63 2.886.01-.03.059.132.147.483.009 0-.03.255-.118.762.04.166.015.557-.073 1.172.02-.117.073.244.161 1.084.01.127-.014.557-.073 1.29.01.048.029.111.059.19 0 .048-.034.41-.103 1.084-.019.214.025.678.132 1.391.059.078.122.195.19.352.01.03.039.361.088.996a7.449 7.449 0 0 0-.014.527c.048.108.112.259.19.454.029.078.024.2-.015.367.118.156.284.39.498.703.118.215.352.508.704.879l.791.615c.371.264.703.42.996.469.263.029.571.044.923.044h1.948c.537 0 1.103-.313 1.699-.938.566-.586.933-1.196 1.099-1.831.078-.537.171-1.192.278-1.963.078-.508.078-1.196 0-2.065l.029-6.93c-.068-.575-.219-1.244-.454-2.006-.097-.312-.469-.557-1.113-.732-.117-.03-.322-.074-.615-.132a.729.729 0 0 1-.088-.381c-.049 0 .102-.02.454-.059a6.225 6.225 0 0 1 2.095.088 2.48 2.48 0 0 1 .483-.058c.371.068 1.016.053 1.934-.044a.52.52 0 0 1 .219.029c.108.02.181.03.22.03.107 0 .581-.04 1.421-.118Zm26.792 22.031c0 .117-.005.235-.015.352-.019.146-.092.24-.219.278-.118.05-.367.098-.748.147-.126.02-.395.093-.805.22-.371.117-.65.175-.835.175a.604.604 0 0 1-.191-.03c-.058-.009-.151-.063-.278-.16-.166-.117-.234-.215-.205-.293-.107-.059-.312-.044-.615.044.205.107.454.244.747.41-.733.039-1.226-.03-1.48-.205.02-.088.054-.225.103-.41a.628.628 0 0 0-.088-.059c.049-.01-.361-.054-1.23-.132 0-.01-.035.015-.103.073.078.04.19.093.337.162-.44.02-.718-.01-.835-.088a16.202 16.202 0 0 0-.352-.454c-.224-.254-.424-.362-.6-.323-.225-.302-.757-.864-1.597-1.684-.732-.703-1.113-1.133-1.142-1.29a2.092 2.092 0 0 1-.367-.307c-.146-.185-.322-.474-.527-.864-.039-.098-.117-.152-.234-.161-.137-.43-.44-.806-.909-1.128.079-.117.088-.22.03-.308l-.747-.864c-.332-.39-.498-.728-.498-1.01 0-.05.005-.099.014-.147.03-.03.137-.025.323.014.048.04.122.093.219.162.215-.04.386-.118.513-.235.176.156.405.396.688.718.147-.03.22-.117.22-.264 0-.254-.141-.376-.425-.366a.314.314 0 0 0 .059-.102c.029-.05.054-.079.073-.088.059.048.156.117.293.205.078 0 .137-.03.176-.088a1.11 1.11 0 0 0 0-.44 1.242 1.242 0 0 0-.82-.293c-.176 0-.435.044-.777.132-.342.078-.586.117-.732.117a.96.96 0 0 1-.484-.117c-.341-.195-.566-.537-.673-1.025a5.658 5.658 0 0 1-.191-.161l.029-.117c0-.157-.083-.294-.249-.41-.166-.118-.322-.177-.468-.177-.557.01-1.309.01-2.256 0-1.113-.01-1.865-.014-2.256-.014-.088 0-.132.044-.132.132-.019.566-.019.888 0 .966v1.89l.029.82c.02.547.03.957.03 1.23a.8.8 0 0 1-.074.235.496.496 0 0 0-.029.279 3.5 3.5 0 0 1 .308.615c.107.713.141 1.172.102 1.377l-.659.469c0 .058.015.097.044.117.547.01 1.421.122 2.622.337.098.029.244.078.44.146.019.078.005.279-.044.6-.157.118-.293.177-.41.177-.293 0-1.075-.093-2.344-.279l-3.179-.058a7.43 7.43 0 0 1-.967.175c-.693.03-1.518.044-2.475.044 0-.166.005-.405.014-.717.313-.127.767-.269 1.363-.425.312-.078.644-.337.996-.777.351-.43.537-.786.556-1.069.127-1.357.191-2.1.191-2.227V11.67c0-.04-.015-.156-.044-.352a3.364 3.364 0 0 1-.044-.395c-.01-.127.01-.425.059-.894.048-.468.073-.84.073-1.113 0-.117-.02-.342-.059-.674a6.938 6.938 0 0 1-.073-.805c-.02-.284-.073-.699-.161-1.246a10.59 10.59 0 0 1-.279-.63c-.087-.341-.473-.605-1.157-.79-.088-.04-.239-.103-.454-.19-.176 0-.425-.01-.747-.03-.234-.156-.268-.39-.102-.703a16.97 16.97 0 0 1 1.259-.235c1.582-.127 2.495-.19 2.74-.19h2.094c.039 0 .313-.03.821-.088.517-.059.8-.088.849-.088h1.172c.049 0 .205.015.469.044.303.03.513.049.63.059.185-.03.454-.054.805-.074a34.64 34.64 0 0 1 3.413.63c.469.108 1.416.728 2.842 1.86.049.079.049.186 0 .323-.166.166-.503.38-1.01.644-.499.254-.835.474-1.011.66.019.117.132.19.337.22.175.019.337.004.483-.045.02-.058.078-.122.176-.19.273-.049.469-.073.586-.073.049.166.161.337.337.512.156-.048.234-.151.234-.307-.01-.147-.083-.283-.22-.41a.785.785 0 0 1 .425 0c.205.058.386.088.542.088.098.507.2 1.015.308 1.523.137.684.205 1.255.205 1.714 0 .39-.044.747-.132 1.07-.137.527-.42 1.308-.85 2.343-.253.45-.732 1.099-1.435 1.948-.02.03-.479.386-1.377 1.07.273.517.659 1.088 1.157 1.713.391.489.694.933.908 1.333.235.44.415.747.542.923.02.069.054.156.103.264.547.664 1.333 1.655 2.358 2.974.03.058.03.112 0 .16.41.313.923.758 1.538 1.334.274.273.65.688 1.128 1.245-.312.03-.468.175-.468.44 0 .243.122.414.366.512.049-.352.2-.527.454-.527.039 0 .078.004.117.014.039.01.278.122.718.337l1.963.967c.283.117.669.18 1.157.19Zm-12.656-8.35c-.118.137-.23.191-.337.162.019-.108.088-.186.205-.235l.132.074Zm.879-9.067c-.264-.088-.396-.22-.396-.395V9.37a.467.467 0 0 0-.044-.176 5.17 5.17 0 0 1-.058-.16c-.059-.626-.372-1.334-.938-2.125-.625-.869-1.274-1.372-1.948-1.509a3.08 3.08 0 0 0-.396-.19c-.986-.205-1.543-.308-1.67-.308h-1.289a4.4 4.4 0 0 0-1.333.19c-.039.02-.151.137-.337.352.069.577.098.899.088.967 0 .01-.019.04-.058.088a.276.276 0 0 0-.044.147v2.036c0 .048-.03.136-.088.263-.059.117-.083.205-.073.264.058.234.122.464.19.688.068.254.068.479 0 .674-.156.46-.176 1.07-.059 1.831-.019-.156-.029.074-.029.689v2.095c0 .127-.015.283-.044.468a1.394 1.394 0 0 0-.014.337c.029.127.092.298.19.513.234.068.576.151 1.025.249l2.857.058c.303-.126.762-.307 1.377-.541a6.25 6.25 0 0 0 .923-.381c.576-.528.986-1.02 1.23-1.48.205-.37.361-.869.469-1.494.01-.185.044-.469.102-.85a8.56 8.56 0 0 1 .103-.57c.049-.147.137-.206.264-.177ZM54.83 46.815a1.625 1.625 0 0 1-.228.238c-.264.146-.454.22-.572.22h-1.054c-.358 0-.624-.015-.8-.045a25.221 25.221 0 0 0-.59-.202c-.222-.07-.611-.422-1.168-1.054-.047-.053-.275-.431-.686-1.134a26.924 26.924 0 0 1-.87-1.608 4.269 4.269 0 0 0-.28-.633c-.06-.065-.206-.088-.44-.07l-.449.052c-.193-.012-.48-.014-.861-.009-.041 0-.09.035-.15.106.024.228.053.946.088 2.153.006.234.053.542.141.923 0 .105.03.26.088.466.123.21.322.363.598.457l.668.193c.005.065 0 .14-.018.229-.17.07-.343.105-.519.105h-.922c-.012 0-.091-.014-.238-.044a1.844 1.844 0 0 0-.316-.044c-.182 0-.466.015-.853.044l-.57.044h-.889a.83.83 0 0 1-.316-.079.434.434 0 0 0-.026-.105.596.596 0 0 1-.018-.115 4.29 4.29 0 0 0 .563-.175c.216-.1.392-.27.527-.51.058-.106.1-.375.123-.809 0-.07.02-.252.062-.545.035-.27.052-.474.052-.615 0-.797.006-1.227.018-1.292.017-.064.073-.17.167-.316a1.146 1.146 0 0 1-.158-.238 1.763 1.763 0 0 1-.044-.448v-.888l-.027-.272c.006.07.032-.317.08-1.16a.434.434 0 0 0-.045-.062c-.064-.228-.061-.53.01-.905.023-.105-.015-.457-.115-1.055-.006-.187-.059-.433-.158-.738a.838.838 0 0 0-.501-.299c-.176-.04-.349-.079-.519-.114 0-.334-.009-.404-.026-.211.012-.094.07-.144.176-.15.24-.011.624-.038 1.151-.078a66.9 66.9 0 0 1 .747-.07h1.134c.21 0 .428-.018.65-.054a3.76 3.76 0 0 1 .572-.052c.199 0 .448.017.747.052.187.041.462.1.826.176a.84.84 0 0 0 .176.08c.562.087 1.06.354 1.494.8.24.251.454.696.641 1.335l.027.413c.011.147 0 .366-.035.66-.077.62-.223 1.09-.44 1.406-.2.293-.583.703-1.151 1.23a.593.593 0 0 0 .07.325l1.107 2.127c.44.768.973 1.421 1.6 1.96.053.047.27.123.65.229.229.058.422.073.58.044.235-.047.402-.065.502-.053a.72.72 0 0 1 .017.184Zm-4.816-7.523c0-.193-.015-.322-.044-.387-.293-.779-.542-1.277-.747-1.494-.282-.305-.595-.498-.94-.58-.23-.053-.598-.067-1.108-.044a.812.812 0 0 0-.246.097 46.662 46.662 0 0 0-.176 2.443c.03.047.059.114.088.202 0 .082-.026.416-.08 1.002a5.13 5.13 0 0 0 .027 1.16c.018.018.041.044.07.08h.87c.1.023.206.035.317.035.346 0 .677-.109.993-.325.322-.223.519-.405.589-.546.258-.48.387-1.028.387-1.643Zm12.56 4.904a29.53 29.53 0 0 1-.115 1.292c-.07.153-.158.367-.264.642a5.519 5.519 0 0 1-.132.492c-.023.065-.1.173-.228.325-.152.188-.275.281-.37.281h-2.24c-.041 0-.305-.008-.791-.026-.487-.017-.75-.026-.791-.026h-1.354c-.035 0-.217-.018-.545-.053-.322-.03-.504-.044-.545-.044h-1.327l-.114-.123c.064-.082.32-.258.764-.527.305-.194.458-.428.458-.703v-2.778c0-.45.07-1.057.21-1.82-.076-.233-.09-.526-.043-.878a.454.454 0 0 1-.159-.37c0-.01.059-.251.176-.72.006-.04-.023-.123-.088-.246a4.32 4.32 0 0 0-.132-.229c-.04-.123-.058-.316-.052-.58v-.597c-.018-.2-.059-.36-.123-.484a.935.935 0 0 0-.431-.404 21.079 21.079 0 0 1-.528-.237c.083-.194.17-.296.264-.308.182.024.443.03.782.018.375-.088.557-.132.545-.132h1.556c.023 0 .2.02.527.062.334.04.586.064.756.07.07 0 .657-.038 1.758-.115.252-.017.911 0 1.978.053.093.065.14.144.14.238a.66.66 0 0 1-.061.228.75.75 0 0 0-.053.22c-.006.193-.067.832-.185 1.916-.017.035-.102.09-.255.167-.035-.059-.143-.372-.325-.94-.117-.37-.334-.572-.65-.607a42.74 42.74 0 0 0-.396-.088c-.181-.041-.322-.047-.422-.017-.257.076-.817.084-1.678.026-.475-.035-.832-.026-1.072.026-.07.018-.118.085-.141.202.21.686.22 1.292.026 1.82.012-.035.018.111.018.44 0 .081-.015.251-.044.509-.03.21-.035.38-.018.51.006.058.062.134.167.228h3.314c.105-.035.208-.07.307-.105a.587.587 0 0 0 .343-.273c.059-.152.167-.363.325-.633.188 0 .308.065.36.194a52.96 52.96 0 0 0-.07 1.283 16.5 16.5 0 0 1-.123 1.52c-.023.1-.14.132-.351.097a3.575 3.575 0 0 0-.404-.553c-.358-.27-.683-.405-.976-.405h-1.213c-.076 0-.226-.014-.448-.044a4.208 4.208 0 0 0-.501-.044c-.31 0-.507.091-.589.273-.094.205-.14.363-.14.474 0 .106.02.305.06.598.042.293.06.519.054.677a3.712 3.712 0 0 1-.088.466c-.047.222-.07.398-.07.527 0 .1.011.19.035.272.04.141.199.31.474.51.281.2.522.314.72.343l.089.035a.556.556 0 0 0 .158.026h1.459c.328 0 .603-.052.826-.158.31-.14.612-.375.905-.703.323-.363.495-.709.519-1.037.152-.1.343-.117.571-.053Zm10.37-7.971c-.011.175-.05.5-.114.975a6.72 6.72 0 0 0-.079.88c0 .193.018.374.053.544a.3.3 0 0 0-.115.237c0 .041.012.112.036.211a.506.506 0 0 1 .017.22.385.385 0 0 1-.255.15c-.123.029-.22.011-.29-.053.047-.182.07-.36.07-.537 0-.005-.02-.07-.06-.193 0-.082-.018-.193-.054-.334a25.137 25.137 0 0 1-.28-.44 1.739 1.739 0 0 0-.396-.404 3.357 3.357 0 0 0-1.196-.51c-.27-.064-.378-.096-.325-.096h-1.424a21.09 21.09 0 0 0-.993.246c-.504.158-.975.463-1.415.914-.064.065-.202.305-.413.72-.299.604-.448 1.094-.448 1.469a.55.55 0 0 0 .017.149c-.011-.047-.026.02-.044.202-.035.434-.047.71-.035.826.006.006.015.03.027.07a.266.266 0 0 1 .026.097c-.012.141.02.484.097 1.029 0 .129.017.328.052.597.047.065.106.161.176.29.018.082.047.194.088.334.105.123.243.31.413.563.176.375.355.636.536.782.188.117.454.299.8.545.03.076.082.182.158.316a.692.692 0 0 0 .22-.026 1.21 1.21 0 0 1 .237-.035c.053 0 .197.026.43.079.241.047.42.073.537.08a6.01 6.01 0 0 0 1.389-.106c.129-.024.328-.053.597-.088.498-.082.932-.487 1.301-1.213.006-.012.024-.132.053-.36.023-.07.05-.17.079-.3.006-.146.02-.368.044-.667a.344.344 0 0 1 .114-.027c.17 0 .26.2.273.598a12.15 12.15 0 0 1-.08 1.793c-.005.182-.058.428-.158.738-.046.065-.222.138-.527.22a9.85 9.85 0 0 1-1.02.22c-.216.029-.541.07-.975.123-1.02.117-1.872.067-2.558-.15-.058 0-.137-.005-.237-.017a3.847 3.847 0 0 0-.325-.15c-.639-.17-1.28-.536-1.925-1.098-.674-.598-1.113-1.21-1.318-1.837l-.211-.466c0-.047-.006-.114-.018-.202a2.928 2.928 0 0 1-.184-.396 9.791 9.791 0 0 1-.097-.633 19.46 19.46 0 0 1 .035-1.169c.006-.14.126-.726.36-1.757l.378-.633a5.86 5.86 0 0 1 .308-.483c.14-.206.258-.323.351-.352.13.012.214-.003.255-.044.258-.264.645-.644 1.16-1.143.041.012.1.018.176.018.065-.064.164-.135.3-.21.064.017.163.031.298.043.322-.094.797-.208 1.424-.343.24-.035.53-.053.87-.053h1.125l1.397.124c.329-.006.76.035 1.292.123Zm12.525 5.3c0 .333-.009.588-.027.764a3.83 3.83 0 0 0-.184.624c-.012.281-.073.58-.185.897-.093.117-.231.307-.413.57-.047.177-.176.429-.387.757-.17.17-.427.433-.773.79-.053.018-.12.048-.202.089a4.34 4.34 0 0 1-.404.307c-.961.51-1.875.8-2.743.87h-1.16c.012 0-.011-.017-.07-.052-.633-.018-1.108-.106-1.424-.264a5.043 5.043 0 0 1-.334-.088c-.234-.094-.586-.26-1.055-.5-.562-.358-1.09-.862-1.582-1.513-.275-.363-.518-.832-.73-1.406-.198-.533-.31-.981-.333-1.345a8.625 8.625 0 0 1 .07-1.828c.035-.076.082-.184.14-.325.036-.176.097-.43.185-.765.13-.205.3-.504.51-.896a.548.548 0 0 0 .044-.229c.03-.029.088-.02.176.027.03-.082.03-.2 0-.352a1.97 1.97 0 0 0 .325-.15c.047-.122.158-.272.334-.447.352-.188.882-.463 1.59-.827.182-.087.414-.164.695-.228.715-.164 1.201-.246 1.46-.246h.685c.533 0 .99.05 1.37.15.206.058.657.222 1.354.491l.695.44c.457.293.873.694 1.248 1.204.334.457.55.879.65 1.266.047.064.106.16.176.29.129.351.202.873.22 1.564 0 .023.011.08.035.167a.62.62 0 0 1 .044.193Zm-1.951.228a6.995 6.995 0 0 0-.431-2.022c-.299-.785-.65-1.403-1.055-1.854-.574-.633-1.2-1.005-1.88-1.116-.645-.106-1.088-.14-1.328-.106a4.228 4.228 0 0 0-1.195.308 21.38 21.38 0 0 0-.8.466.974.974 0 0 1-.158.21c-.047.012-.1.03-.158.053a13.77 13.77 0 0 0-.44.616c-.023.07-.061.17-.114.298a6.915 6.915 0 0 0-.281.501c-.053.217-.135.542-.246.976.005.164.003.413-.01.747a.426.426 0 0 1-.034.114c-.024.059-.032.1-.027.123.082.381.2.909.352 1.582a.645.645 0 0 0-.035.167c.04.082.1.194.175.334.006.077.024.176.053.3.246.491.375.743.387.755.176.305.416.595.72.87.006.006.045.126.115.36.023.006.123.024.299.053.287.264.507.443.659.536.433.258 1.219.337 2.355.238.094-.03.217-.068.37-.114.193-.042.471-.138.834-.29a4.75 4.75 0 0 1 .326-.273c.586-.363.934-.812 1.046-1.345.058-.07.129-.17.21-.299.012-.11.03-.243.053-.395a.588.588 0 0 0 .106-.167c.011-.135.04-.428.088-.879.04-.363.055-.612.044-.747Zm12.85 5.062a1.625 1.625 0 0 1-.23.238c-.263.146-.453.22-.57.22h-1.055c-.358 0-.624-.015-.8-.045a25.221 25.221 0 0 0-.589-.202c-.223-.07-.612-.422-1.169-1.054-.047-.053-.275-.431-.686-1.134a26.924 26.924 0 0 1-.87-1.608 4.269 4.269 0 0 0-.28-.633c-.06-.065-.206-.088-.44-.07l-.448.052a12.73 12.73 0 0 0-.862-.009c-.04 0-.09.035-.15.106.024.228.053.946.089 2.153.005.234.052.542.14.923 0 .105.03.26.088.466.123.21.322.363.598.457l.668.193c.006.065 0 .14-.018.229a1.35 1.35 0 0 1-.518.105h-.923c-.012 0-.091-.014-.237-.044a1.844 1.844 0 0 0-.317-.044c-.182 0-.466.015-.853.044l-.57.044h-.888a.83.83 0 0 1-.317-.079.434.434 0 0 0-.026-.105.596.596 0 0 1-.018-.115 4.29 4.29 0 0 0 .563-.175c.216-.1.392-.27.527-.51.059-.106.1-.375.123-.809 0-.07.02-.252.062-.545.035-.27.052-.474.052-.615 0-.797.006-1.227.018-1.292.017-.064.073-.17.167-.316a1.15 1.15 0 0 1-.158-.238 1.764 1.764 0 0 1-.044-.448v-.888l-.027-.272c.006.07.033-.317.08-1.16a.434.434 0 0 0-.044-.062c-.065-.228-.062-.53.008-.905.024-.105-.014-.457-.114-1.055-.006-.187-.058-.433-.158-.738a.838.838 0 0 0-.501-.299c-.176-.04-.349-.079-.519-.114 0-.334-.008-.404-.026-.211.012-.094.07-.144.176-.15.24-.011.624-.038 1.151-.078.486-.047.736-.07.747-.07h1.134c.21 0 .428-.018.65-.054a3.76 3.76 0 0 1 .572-.052c.199 0 .448.017.747.052.187.041.463.1.826.176.035.024.094.05.176.08.562.087 1.06.354 1.494.8.24.251.454.696.641 1.335l.027.413c.011.147 0 .366-.035.66-.076.62-.223 1.09-.44 1.406-.199.293-.583.703-1.151 1.23a.593.593 0 0 0 .07.325l1.108 2.127a7.38 7.38 0 0 0 1.6 1.96c.052.047.269.123.65.229.228.058.421.073.58.044.234-.047.401-.065.5-.053a.72.72 0 0 1 .018.184Zm-4.817-7.523c0-.193-.015-.322-.044-.387-.293-.779-.542-1.277-.747-1.494-.282-.305-.595-.498-.94-.58-.23-.053-.598-.067-1.108-.044a.812.812 0 0 0-.246.097 46.662 46.662 0 0 0-.176 2.443c.03.047.059.114.088.202 0 .082-.026.416-.08 1.002a5.13 5.13 0 0 0 .027 1.16c.018.018.041.044.07.08h.87c.1.023.206.035.317.035.346 0 .677-.109.993-.325.322-.223.519-.405.59-.546.257-.48.386-1.028.386-1.643Zm14.748 1.38c.035.299.006.826-.088 1.582l-.255 1.028c-.24.996-.677 1.79-1.31 2.382a5.52 5.52 0 0 1-.949.686c-.457.275-.826.424-1.107.448a.869.869 0 0 1-.176.079c-.867.129-1.286.193-1.257.193h-5.721c-.047-.205-.033-.334.043-.386.247-.088.416-.132.51-.132.035-.047.085-.112.15-.194.275-.287.413-.603.413-.949 0-.006-.018-.079-.053-.22.023-.058.041-.143.053-.254a2.056 2.056 0 0 1-.088-.22.506.506 0 0 1 .035-.194c.03-.1.047-.172.053-.22.011-.222.017-.574.017-1.054v-.993c-.005-.674 0-1.652.018-2.936a.363.363 0 0 0-.044-.114.399.399 0 0 1-.044-.14c0-.094.015-.238.044-.431.03-.2.044-.349.044-.448a.362.362 0 0 0-.053-.132.822.822 0 0 1-.07-.158 3.65 3.65 0 0 0-.026-.51c-.1-.393-.25-.642-.449-.747-.164-.082-.445-.153-.844-.211a1.791 1.791 0 0 1-.008-.229c.252-.123.504-.158.756-.105l.061.052c.041.03.076.041.106.036l.149-.088.58-.018a.585.585 0 0 1 .492.264.262.262 0 0 0 .062-.009c.052-.088.14-.202.263-.343.141.024.337.053.59.088.011.006.035-.012.07-.053a.346.346 0 0 1 .105-.079c.182-.058.454-.087.818-.087h2.232c.967.216 1.649.413 2.048.588a4.414 4.414 0 0 1 1.863 1.512c.1.129.237.337.413.624.258.51.443 1.207.554 2.092Zm-.396-.009c-.715-.047-1.218-.064-1.511-.053-.047-.023-.065-.123-.053-.298a24.82 24.82 0 0 0-.501-1.108c-.311-.633-.653-1.134-1.028-1.503-.375-.375-.985-.639-1.829-.79-.38-.065-.553-.098-.518-.098h-.905c-.024 0-.185.03-.484.088a13.6 13.6 0 0 1-.597.097c-.083.41-.115.855-.097 1.336.012.228.017.694.017 1.397v3.472l-.026.299a2.261 2.261 0 0 0 0 .404c.03.34.044.487.044.44a4.12 4.12 0 0 0-.009.589c0 .035.018.114.053.237.03.1.041.176.035.228a3.876 3.876 0 0 1-.29.115c-.135.058-.217.134-.246.228.1.088.231.14.395.158.118.006.235.01.352.01 1.178.134 1.86.201 2.048.201.557 0 1.049-.085 1.476-.255a2.67 2.67 0 0 0 .923-.597c.516-.522.859-1.17 1.029-1.943.082-.375.14-.999.175-1.872 0-.07-.052-.17-.158-.298-.011-.082.006-.13.053-.141.088-.03.27-.062.545-.097.24-.023.583-.061 1.028-.114.053-.041.079-.085.079-.132Zm8.42 3.586c0 .129-.07.384-.211.765-.134.375-.234.606-.299.694a6.227 6.227 0 0 1-.878.879c-.17.135-.393.246-.668.334a6.724 6.724 0 0 1-2.013.334l-.334-.018a3.658 3.658 0 0 0-.466-.017c.018.053.026-.05.026-.308-.146-.14-.339-.21-.58-.21a.344.344 0 0 0-.246.113c.012.012.1.053.264.123-.035.106-.106.159-.211.159-.111 0-.36-.047-.747-.14-.504-.124-.87-.265-1.099-.423-.052-.035-.111-.27-.175-.703a9.676 9.676 0 0 1-.071-1.274c0-.457.024-.83.071-1.117a1.19 1.19 0 0 0 .281-.035c.047.059.067.17.061.334l-.008.308.131.624c.006.04.085.17.238.387.088.14.246.334.474.58.194.152.454.27.783.351.175.053.351.109.527.167.223.065.407.097.554.097a.296.296 0 0 0 .131.053.482.482 0 0 0 .106-.018.484.484 0 0 1 .105-.017c.03 0 .141.023.334.07.194.04.302.061.326.061.023 0 .079-.032.167-.096a.708.708 0 0 1 .21-.123l.721-.15c.164-.035.296-.193.396-.474l.175-.334a1.6 1.6 0 0 1 .018-.194c.012-.04.047-.114.105-.22a.62.62 0 0 0 .088-.202c0-.216-.026-.401-.079-.553-.029-.094-.149-.302-.36-.624l-.281-.203c-.51-.41-1.002-.694-1.477-.852a13.429 13.429 0 0 0-.562-.308c-.293-.123-.765-.386-1.415-.79a3.07 3.07 0 0 1-.203-.089 3.986 3.986 0 0 1-.544-.57 20.38 20.38 0 0 0-.44-.546c0-.082-.006-.205-.018-.369a4.21 4.21 0 0 1-.149-.29c0-.123-.009-.293-.026-.51.035-.047.052-.088.052-.123a2.919 2.919 0 0 0-.096-.22c0 .012.061-.125.184-.413.018-.129.059-.304.123-.527.024-.053.179-.22.466-.5.135.063.196.096.185.096.017-.076.052-.173.105-.29.539-.516 1.034-.832 1.486-.95.369-.093.864-.14 1.485-.14.029 0 .325.032.888.097.562.064.858.096.887.096.024 0 .153-.014.387-.044.24-.035.375-.052.404-.052.164 0 .246.07.246.21l-.131 1.45v.765l-.018.308a7.652 7.652 0 0 0-.018.422.264.264 0 0 0-.061.035.141.141 0 0 1-.088.035h-.202a12.31 12.31 0 0 0-.114-.8c-.182-.691-.56-1.14-1.134-1.344-.299-.106-.823-.159-1.573-.159-.141 0-.381.059-.721.176-.293.1-.571.355-.835.765a.862.862 0 0 0-.141.474c0 .276.091.607.273.994l.316.29c.404.404 1.005.77 1.802 1.098 1.26.516 2.136 1.084 2.628 1.705a1.9 1.9 0 0 1 .369.8c.076.358.114.72.114 1.09Z" fill="#fff"/></svg>