<svg width="1440" height="85" fill="none" xmlns="http://www.w3.org/2000/svg"><path d="M1424.81 61.403H1440V0H0v75.247l41.985-4.877 48.092 4.877 18.091 3.603 58.274 2.968 70.88-2.968 74.57-3.603h63.127l42.716 1.112 43.721 2.491 16.735 2.968h102.796l13.706.703h40.749L676.587 85h69.748l55.837-2.48L843.761 85h77.212l81.567-4.655 36.19-4.532 44.96-4.829h88.13l39.29-2.46 16.96-3.933h42.39l13.37-1.807 21.28-1.566 16.9-1.117 17.65 1.117 18.59 1.566h12.29l18.54-2.553 8.76-1.022 26.97 2.194Z" fill="#001E26"/></svg>